<?xml version="1.0" encoding="utf-8"?>
<!-- Generator: Adobe Illustrator 27.5.0, SVG Export Plug-In . SVG Version: 6.00 Build 0)  -->
<svg version="1.1" xmlns="http://www.w3.org/2000/svg" xmlns:xlink="http://www.w3.org/1999/xlink" x="0px" y="0px"
	 viewBox="0 0 1700 1270" style="enable-background:new 0 0 1700 1270;" xml:space="preserve">
<g id="background">
	<g>
		
			<rect x="215" y="-215" transform="matrix(-1.836970e-16 1 -1 -1.836970e-16 1485 -215)" style="fill:#FFFFFF;" width="1270" height="1700"/>
	</g>
</g>
<g id="shadow">
	<g style="opacity:0.06;">
		<path style="fill:#272525;" d="M1496.017,1032.139c-1.774-0.853-3.64-1.552-5.601-2.085c-7.607-2.068-18.888,0.103-26.732,0.146
			c-35.245,0.193-70.49,0.387-105.734,0.58c-117.82,0.646-235.639,1.292-353.459,1.938c-138.29,0.759-276.579,1.517-414.869,2.275
			c-107.596,0.59-215.192,1.18-322.788,1.77c-29.777,0.163-59.555,0.327-89.332,0.49c0,0,82.543,127.186,232.93,141.286
			c114.588,10.744,231.836,6.386,346.753,6.69c172.134,0.454,344.272-0.451,516.401-1.717c42.631-0.314,85.262-0.658,127.892-1.032
			c23.401-0.205,93.502,10.539,110.58-6.604c4.381-4.398,6.719-10.401,8.555-16.332
			C1530.164,1128.674,1531.773,1049.324,1496.017,1032.139z"/>
	</g>
</g>
<g id="object">
	<g>
		<g>
			<polygon style="fill:#514943;" points="466.68,1096.006 467.108,1107.651 459.858,1128.721 445.564,1125.607 447.079,1093.181 
				449.886,1088.32 			"/>
		</g>
		<g>
			<path style="fill:#D7DDDD;" d="M1461.56,1034.49c0,14.538-11.786,26.324-26.324,26.324h-89.297V719.372h89.297
				c14.538,0,26.324,11.786,26.324,26.324V1034.49z"/>
		</g>
		<g>
			<path style="fill:#C5CCCC;" d="M1347.209,1060.814H288.829v-462.61c0-18.985,15.39-34.375,34.375-34.375h989.63
				c18.985,0,34.375,15.39,34.375,34.375V1060.814z"/>
		</g>
		<g style="opacity:0.09;">
			<path d="M1347.209,941.72L305.647,975.676c-9.858,0.425-18.088-7.263-18.088-16.898v-69.161l1058.38,27.292L1347.209,941.72z"/>
		</g>
		<g>
			<path style="fill:#D7DDDD;" d="M1351.077,929.315H316.725c-19.617,0-35.52-15.903-35.52-35.52v-14.263
				c0-19.617,15.903-35.52,35.52-35.52h1034.352c19.617,0,35.52,15.903,35.52,35.52v14.263
				C1386.597,913.412,1370.694,929.315,1351.077,929.315z"/>
		</g>
		<g>
			<path style="fill:#D7DDDD;" d="M288.693,1060.314h-84.396c-17.245,0-31.226-13.98-31.226-31.226V750.097
				c0-17.245,13.98-31.226,31.226-31.226h84.396V1060.314z"/>
		</g>
		<g style="opacity:0.04;">
			<path d="M287.559,843.982l63.587-40.981c0,0,951.621-13.277,957.292-9.128s38.771,48.14,38.771,48.14
				S302.233,844.302,287.559,843.982z"/>
		</g>
		<g>
			<g>
				<g>
					<polygon style="fill:#363636;" points="826.463,1106.021 819.707,1116.426 826.95,1155.644 840.584,1164.496 854.431,1156.23 
						853.045,1125.198 840.31,1097.754 					"/>
				</g>
				<g>
					<polygon style="fill:#363636;" points="885.446,1113.403 883.341,1125.63 905.46,1158.814 921.48,1161.574 930.946,1148.517 
						917.436,1120.545 894.912,1100.346 					"/>
				</g>
				<g>
					<path style="fill:#2E4661;" d="M718.594,802.708c8.569,11.345,23.817,14.888,37.863,16.893
						c15.734,2.246,31.603,3.539,47.492,3.87c11.254,0.234,22.599-0.023,33.611-2.361c17.5-3.715,33.45-12.51,50.227-18.734
						c14.841-5.505,30.417-9.01,46.179-10.393c4.447-0.39,9.12-0.678,12.901-3.058c8.292-5.219,8.203-17.157,7.122-26.919
						c-1.537-13.88-3.674-28.967-13.744-38.609c-7.131-6.827-17.083-9.697-26.722-11.761c-45.66-9.777-93.939-6.102-137.862,9.621
						c-17.644,6.316-45.456,15.508-57.824,30.609C707.677,764.275,709.39,790.523,718.594,802.708z"/>
				</g>
				<g>
					<path style="fill:#2E4661;" d="M718.638,798.459c-1.734,4.571-2.051,10.238-2.176,18.71l53.158,39.457l47.931,264.959
						l36.821-0.245l20.616-253.627c-3.66-21.206-4.277-46.125-11.441-66.269c-8.499-23.898-47.627-34.303-70.992-34.785
						c-20.268-0.419-40.44,5.341-57.648,15.997C725.422,788.53,720.863,792.593,718.638,798.459z"/>
				</g>
				<g>
					<path style="fill:#2E4661;" d="M943.711,767.214c2.321,4.389,4.282,9.038,7.066,13.399
						c6.258,9.803,12.438,19.444,18.295,29.718c8.207,14.396,16.268,28.879,24.194,43.433l-74.668,272.251l-35.611-2.298
						c0,0,8.04-265.325,8.041-265.363c0.188-6.815-15.01-15.939-19.502-19.476c-11.546-9.09-17.016-13.737-23.46-27.203
						c-5.025-10.501-5.861-22.993-2.008-33.978c3.853-10.985,12.415-20.287,23.157-24.774c8.333-3.48,17.544-4.068,26.558-4.612
						c13.041-0.786,27.256-1.252,37.84,6.408C938.348,758.146,941.235,762.532,943.711,767.214z"/>
				</g>
			</g>
			<g>
				<path style="fill:#2E4661;" d="M683.904,771.133c-0.648,19.207-0.233,44.898,7.838,45.858c1.511,0.18,2.968-0.49,4.298-1.138
					c14.033-6.831,24.036-16.489,37.871-23.089c14.497-6.916,30.974-10.536,47.077-13.035c24.018-3.844,48.432-6.153,72.605-6.369
					c20.775-0.184,45.916-0.774,65.556,4.448c14.918,5.387,29.594,10.915,44.148,16.823c-4.39-71.549-14.54-144.525-30.581-218.31
					c-6.263-28.804-6.124-57.294-27.104-79.327c-18.779-19.722-12.471-45.016-67.602-44.61
					c-97.755,0.72-68.538-6.379-110.542,71.856c-9.426,17.556-21.308,65.448-24.836,84.378
					c-4.246,22.782-8.169,45.458-11.258,68.074c-3.421,25.048-5.832,50.022-6.53,74.85
					C684.766,754.288,684.214,761.963,683.904,771.133z"/>
			</g>
			<g>
				<path style="fill:#FFFFFF;" d="M789.852,458.992l53.589,0.308c0,0,37.687,153.75,39.428,180.231
					c1.709,25.997,8.163,127.578,8.163,127.578s-52.466-9.473-107.772,1.535c-54.902,10.927-51.142,14.171-51.142,14.171
					s29.607-110.783,30.583-142.614C763.7,607.645,788,527,788,527L789.852,458.992z"/>
			</g>
			<g>
				<path style="fill:#E7CAAD;" d="M824.252,459.474c-0.481,0.418-1.036,0.747-1.676,0.958c-1.273,0.419-2.655,0.266-3.986,0.109
					c-5.42-0.641-10.84-1.283-16.26-1.924c1.788-16.598-7.915-20.352-17.369-31.026c-9.583-10.823-6.633-25.413-6.095-38.657
					c0.154-3.688,0.334-7.488,1.893-10.834c2.737-5.871,9.109-9.114,15.295-11.036c15.786-4.906,33.841-3.698,47.741,5.251
					c3.699,2.382,7.154,5.374,9.158,9.29c3.09,6.039,2.305,13.245,1.443,19.974c-1.324,10.342-4.385,20.499-10.233,29.216
					c-5.448,8.121-15.836,12.01-17.03,21.756C826.825,455.068,826.063,457.901,824.252,459.474z"/>
			</g>
			<g>
				<path style="fill:#3A3029;" d="M892.12,351.105c-0.167-5.063-2.194-9.586-6.947-12.642c-4.098-2.634-8.823-4.819-11.312-9.006
					c-1.932-3.25-2.216-7.273-4.131-10.533c-3.467-5.903-10.993-7.64-17.539-9.641c-16.377-5.006-25.194-10.785-42.541-4.376
					c-12.332,4.556-28.267,5.167-39.714,11.812c-4.78,2.775-8.847,7.234-12.185,12.2c-11.564,17.206-14.34,41.401-6.808,59.347
					c1.686,4.017,3.828,7.712,6.118,11.248c4.579,7.073,9.484,15.775,17.591,19.237c0.51-3.332,3.118-5.172,3.934-8.447
					c0.587-2.357,0.391-4.828,0.263-7.254c-0.499-9.436-3.539-24.356,6.362-29.036c12.521-5.917,36.007-0.579,48.066,4.43
					c10.67,4.432,28.678,10.198,40.054,5.45C883.89,379.488,892.477,361.921,892.12,351.105z"/>
			</g>
			<g>
				<polygon style="fill:#2E4661;" points="799.943,459.63 836.991,459.63 822.494,480.575 843.434,693.516 817.662,721.443 
					799.943,688.28 804.775,480.575 				"/>
			</g>
		</g>
		<g>
			<g>
				<polygon style="fill:#273140;" points="1212.745,1105.213 1214.411,1117.507 1191.116,1149.877 1175.007,1152.06 
					1166.016,1138.672 1180.52,1111.203 1203.754,1091.825 				"/>
			</g>
			<g>
				<polygon style="fill:#273140;" points="1156.081,1109.095 1158.187,1121.322 1136.067,1154.506 1120.047,1157.266 
					1110.581,1144.209 1124.091,1116.237 1146.615,1096.038 				"/>
			</g>
			<g>
				<path style="fill:#273140;" d="M1322.934,798.4c-8.57,11.345-23.817,14.888-37.863,16.893
					c-15.734,2.246-31.603,3.539-47.492,3.87c-11.254,0.234-22.599-0.023-33.611-2.361c-17.5-3.715-33.45-12.51-50.228-18.734
					c-14.841-5.505-30.417-9.01-46.179-10.393c-4.447-0.39-9.12-0.678-12.901-3.058c-8.292-5.219-8.203-17.157-7.122-26.918
					c1.537-13.88,3.674-28.967,13.744-38.609c7.131-6.827,17.083-9.697,26.722-11.761c45.66-9.777,93.939-6.102,137.861,9.621
					c17.644,6.316,45.456,15.507,57.824,30.609C1333.851,759.967,1332.138,786.216,1322.934,798.4z"/>
			</g>
			<g>
				<path style="fill:#273140;" d="M1313.14,790.252c1.734,4.571,2.051,10.238,2.176,18.71l-53.157,39.457l-47.932,264.959
					l-36.821-0.245l-20.616-253.627c3.66-21.206,4.277-46.125,11.441-66.269c8.499-23.898,47.627-34.303,70.991-34.785
					c20.268-0.419,40.441,5.341,57.648,15.997C1306.355,780.323,1310.915,784.385,1313.14,790.252z"/>
			</g>
			<g>
				<path style="fill:#273140;" d="M1097.816,762.906c-2.321,4.389-4.282,9.038-7.066,13.399
					c-6.259,9.803-12.438,19.444-18.295,29.718c-8.207,14.396-16.268,28.879-24.194,43.433l74.668,272.251l35.611-2.297
					c0,0-8.04-265.325-8.041-265.364c-0.188-6.815,15.01-15.939,19.502-19.476c11.546-9.09,17.016-13.737,23.46-27.203
					c5.025-10.501,5.861-22.993,2.008-33.978c-3.853-10.985-12.415-20.287-23.157-24.774c-8.333-3.48-17.544-4.068-26.558-4.611
					c-13.041-0.786-27.256-1.252-37.84,6.408C1103.179,753.838,1100.292,758.224,1097.816,762.906z"/>
			</g>
		</g>
		<g>
			<path style="fill:#647380;" d="M460.06,472.466c-0.421,0.099-0.839,0.201-1.254,0.306c-19.896,5.008-42.415,33.019-49.541,52.37
				c-21.973,59.665-25.631,97.091-33.86,149.503c-4.431,28.222-16.518,55.8-28.209,81.848c-3.276,7.3-1.316,14.682-1.834,22.27
				c-0.54,7.899,1.345,16.004,2.892,23.804c0.395,2.172,13.343-3.293,14.48-3.658c20.342-6.521,40.859-12.546,61.685-17.331
				c13.782-3.167,27.692-5.788,41.706-7.693c41.344-5.618,68.775,7.712,108.221,20.866c-1.38-90.26,3.633-163.286-11.56-251.945
				c-1.817-10.604-1.741-17.795-7.698-29.253c-5.718-10.997-9.571-18.658-18.733-26.332c-3.139-2.629-6.301-5.275-9.864-7.252
				C507.71,469.55,480.976,467.54,460.06,472.466z"/>
		</g>
		<g>
			<g>
				<polygon style="fill:#E8CBAE;" points="660.698,514.423 678.511,492.156 669.326,484.128 653.752,496.675 651.169,490.863 
					638.247,511.774 646.669,521.409 				"/>
			</g>
			<g>
				<polygon style="fill:#647380;" points="536.355,487.221 582.062,557.18 634.399,507.126 650.133,527.097 565.271,643.736 
					501.412,543.446 				"/>
			</g>
		</g>
		<g>
			<polygon style="fill:#647380;" points="459.299,472.755 369.603,522.156 344.264,453.415 318.884,454.875 313.165,589.053 
				328.319,609.559 421.121,570.608 			"/>
		</g>
		<g>
			<g>
				<g>
					<path style="fill:#514943;" d="M524.626,426.308c4.293,12.56-1.915,25.951-7.369,37.4c-2.229,4.677-5.743,11.224-1.937,15.964
						c4.261,5.307,13.532,3.29,17.288-1.333c2.652-3.263,3.732-7.452,4.633-11.521c4.034-18.235,9.659-43.775,6.531-62.25
						c-2.508-14.813-22.327-39.672-39.564-28.486c-3.13,2.031-4.952,5.464-6.475,8.814c-0.91,2-1.775,4.088-1.801,6.275
						c-0.106,8.724,8.069,10.196,13.714,14.348C516.607,410.64,521.885,418.288,524.626,426.308z"/>
				</g>
				<g>
					<path style="fill:#E7CAAD;" d="M498.484,475.343c11.921-2.737,21.242-12.491,25.721-23.598
						c4.479-11.107,4.713-23.425,3.474-35.298c-4.122-39.51-54.561-36.974-71.641-6.692
						C441.154,436.146,463.822,483.299,498.484,475.343z"/>
				</g>
				<g>
					<path style="fill:#514943;" d="M459.835,428.227c-2.485,9.191-2.895,20.353-2.435,27.089
						c0.525,7.681,4.287,28.554-10.079,25.248c-11.98-2.758-22.062-30.133-25.874-39.923c-9.263-23.791-11.626-48.796,2.627-70.773
						c5.555-8.565,13.301-16.123,23.02-19.723c14.615-5.412,40.028-7.588,54.91-1.306c16.22,6.846,24.822,27.319,14.618,42.265
						c-10.975,16.076-36.453,11.954-50.184,24.409C463.394,418.275,461.269,422.923,459.835,428.227z"/>
				</g>
			</g>
			<g>
				<path style="fill:#E7CAAD;" d="M499.142,471.164c-0.357,3.004-0.715,6.008-1.071,9.012c-0.163,1.377,0.276,5.234-0.758,6.265
					c-0.539,0.537-1.407,0.547-2.177,0.521c-2.202-0.074-21.928-0.83-21.828-2.145c0.269-3.527,0.613-6.988,1.364-10.403
					c0.607-2.759,0.491-7.831,1.863-10.009c3.516,2.053,7.067,3.194,11.068,3.982c3.861,0.76,7.736,1.453,11.622,2.079
					C499.198,470.698,499.17,470.931,499.142,471.164z"/>
			</g>
		</g>
		<g>
			<g>
				<polygon style="fill:#E7CAAD;" points="1052.957,442.331 1041.83,430.579 1042.445,416.32 1039.489,414.655 1037.292,418.21 
					1034.415,406.229 1026.413,400.23 1013.728,404.25 1005.944,415.584 1011.272,427.757 1024.001,437.12 1038.536,453.867 				"/>
			</g>
			<g>
				<path style="fill:#273140;" d="M1046.265,430.993l61.899,68.652c15.846-5.052,30.51-8.223,46.729-10.914
					c15.748-2.614,33.299-15.447,49.507-11.88c36.588,8.054-35.39,57.713-44.334,64.045c-17.846,12.635-35.692,25.27-53.538,37.906
					l-14.776-10.325l-73.587-123.107L1046.265,430.993z"/>
			</g>
		</g>
		<g>
			<path style="fill:#273140;" d="M1330.498,762.02c0.413,18.852-0.18,44.259-7.422,45.189c-1.357,0.174-2.658-0.497-3.845-1.144
				c-12.524-6.838-21.385-16.462-33.73-23.068c-12.939-6.924-27.741-10.604-42.257-13.179c-21.707-3.966-43.893-6.426-66.009-6.812
				c-17.386-0.303-34.855,1.178-52.167,2.618c-14.404,1.199-27.806,5.468-42.479,4.451c-15.04-1.043-29.854-5.65-42.71-13.55
				c-0.471-0.289-0.969-0.618-1.164-1.135c-0.214-0.565-0.006-1.193,0.201-1.761c3.071-8.418,5.28-16.754,10.858-23.725
				c6.229-7.785,10.656-17.676,15.159-26.538c9.385-18.468,18.222-37.824,24.781-57.499c5.425-14.638,10.643-29.433,15.2-44.367
				c2.074-6.796,3.931-13.706,5.971-20.591c2.02-6.818,5.774-15.686,5.774-22.822c0-28.675,25.729-50.246,42.469-71.198
				c5.032-6.298,10.402-12.853,17.884-15.856c5.126-2.057,10.783-2.243,16.304-2.401c16.751-0.481,33.502-0.962,50.252-1.444
				c6.106-0.176,12.458-0.305,18.025,2.212c8.342,3.771,13.058,12.532,17.18,20.706c18.485,36.651,30.27,76.167,36.872,116.918
				c3.446,21.278,6.635,42.597,9.116,63.997c2.769,23.881,4.671,47.869,5.072,71.896
				C1329.879,745.584,1330.302,753.062,1330.498,762.02z"/>
		</g>
		<g>
			<path style="fill:#C1D6E0;" d="M1208.7,555.209c-4.49,9.808-7.096,16.466,0.646,24.575c7.408,7.759,10.454,8.172,13.592,19.782
				c5.25,19.422,10.136,39.597,12.464,59.611c1.535,13.196-0.947,25.835,0.749,39.227c0.616,4.865,5.993,61.945,9.323,61.974
				c-25.965-0.226-51.931-0.452-77.896-0.678c-12.983-0.113-25.965-0.228-38.948-0.339c-7.985-0.068-15.201,2.014-15.827-7.05
				c-0.536-7.762,8.773-21.902,11.238-29.694c6.555-20.718,11.155-42.609,23.613-60.834c6.501-9.511,14.958-17.696,20.369-27.866
				c10.599-19.922,7.951-43.881,8.014-66.447c0.057-20.756,2.679-41.501,7.751-61.627c3.592-14.254,5.847-33.002,22.998-35.982
				c12.858-2.233,27.374-4.122,40.294-2.223c4.394,16.015-9.822,34.922-17.781,47.404c-5.417,8.496-10.056,17.468-14.105,26.69
				C1213.829,544.845,1211.125,549.912,1208.7,555.209z"/>
		</g>
		<g>
			<g>
				<path style="fill:#E7CAAD;" d="M1210.429,478.026c9.323-0.405,18.645-0.81,27.968-1.215c0.502-7.425,0.41-14.89-0.275-22.3
					c7.879-2.288,17.034-5.868,18.829-13.873c0.565-2.522,0.27-5.147-0.029-7.714c-1.233-10.611-2.466-21.223-3.699-31.834
					c-0.427-3.67-0.887-7.449-2.691-10.673c-3.166-5.658-9.766-8.422-16.082-9.883c-16.119-3.728-34.051-1.186-47.261,8.774
					c-3.516,2.651-6.742,5.893-8.453,9.95c-2.637,6.256-1.32,13.391,0.038,20.043c1.253,6.14,2.507,12.28,3.76,18.42
					c1.442,7.062,3.641,15.121,10.203,18.103c3.484,1.583,7.71,1.412,10.821,3.641
					C1209.042,463.397,1207.807,471.808,1210.429,478.026z"/>
			</g>
			<g>
				<path style="fill:#3A3029;" d="M1158.777,343.17c2.07-0.369,4.181-0.806,6.321-1.737c6.753-2.939,11.486-8.835,18.657-11.593
					c14.505-5.58,32.699-4.77,46.947,1.223c13.636,5.735,32.246,7.942,44.45,15.648c5.096,3.218,9.039,8.024,12.029,13.256
					c10.36,18.13,9.084,42.264-3.13,59.2c-2.74,3.8-5.958,7.233-9.319,10.496c-6.958,6.754-15.296,15.109-24.471,17.246
					c0.233-8.088,9.003-33.147,3.167-40.111c-7.738-9.234-22.926-8.998-33.809-7.978c-12.968,1.214-23.644-2.949-36.577-2.302
					c-6.588,0.33-14.036,1.654-19.087-2.588c-5.839-4.904-18.183-20.478-21.111-27.313c-2.563-5.984-0.854-13.354,3.602-18.1
					C1150.291,344.419,1154.443,343.943,1158.777,343.17z"/>
			</g>
		</g>
		<g>
			<g>
				<polygon style="fill:#E8CBAE;" points="428.283,814.971 445.636,975.263 448.144,1094.672 466.902,1100.188 482.349,991.514 
					515.709,792.866 				"/>
			</g>
		</g>
		<g>
			<g>
				<polygon style="fill:#514943;" points="536.276,1098.485 541.397,1109.714 542.709,1133.275 527.285,1136.009 515.709,1103.648 
					516.531,1097.754 				"/>
			</g>
			<g>
				<g>
					<polygon style="fill:#E8CBAE;" points="559.417,777.666 568.699,908.087 536.081,1101.181 517.164,1101.181 523.46,922.431 
						485.469,768.195 					"/>
				</g>
			</g>
		</g>
		<g>
			<path style="fill:#899195;" d="M587.11,801.47c-3.097-8.183-7.395-16.342-13.162-24.675
				c-20.366-29.427-53.116-36.885-84.91-38.555c-14.703-0.772-28.823-5.875-43.456-4.583c-18.643,1.645-36.952,9.272-54.642,15.417
				c-16.116,5.598-41.244,14.734-38.704,38.398c4.027,37.521,37.415,50.88,46.845,83.361c1.912,6.587,2.193,13.591,2.458,20.498
				c0.732,19.051,0.934,38.271,2.336,57.253c9.277,1.702,18.569-3.182,28.006-3.645c15.478-0.76,32.116,3.235,47.584,4.58
				c32.571,2.832,65.213,4.694,97.877,5.584c4.183-24.957,8.366-49.914,12.548-74.871
				C594.906,850.311,596.311,825.783,587.11,801.47z"/>
		</g>
		<g>
			<g>
				<path style="fill:#E7CAAD;" d="M964.606,441.025l3.301-12.862l-6.12-9.983l1.457-2.371l2.992,1.675
					c-4.675-2.581-1.526-18.206-0.49-21.519c0.37-1.183,0.829-2.398,1.745-3.233c1.137-1.038,2.762-1.305,4.292-1.474
					c3.628-0.402,7.289-0.506,10.934-0.312c0.827,0.044,1.705,0.121,2.367,0.619c0.985,0.74,1.159,2.124,1.242,3.353
					c0.751,11.196,1.646,20.651-3.023,30.838l-3.756,17.802L964.606,441.025z"/>
			</g>
			<g>
				<polygon style="fill:#2E4661;" points="959.555,427.316 944,506 857.688,453.878 888.282,550.824 969,582 980.904,577.148 
					989.678,437.729 				"/>
			</g>
		</g>
		<g>
			<path style="fill:#2E4661;" d="M1209.045,484.527l18.524,3.9l-4.875,13.649l-7.8,8.775c0,0-19.499,53.623-22.424,79.947
				c-2.925,26.324,0,60.438,0,60.438l-0.975,23.409c0,0-11.699-15.599-14.624-18.524c-2.925-2.925-1.95-75.072,3.9-102.371
				s24.95-50.981,24.95-50.981S1208.07,491.352,1209.045,484.527z"/>
		</g>
		<g>
			<g>
				<polygon style="fill:#E7CAAD;" points="1162.478,669.3 1146.69,677.597 1131.747,672.69 1129.099,675.328 1132.215,678.72 
					1118.646,678.197 1109.894,684.895 1110.373,699.552 1120.073,711.192 1134.577,709.173 1148.308,698.463 1170.412,688.042 				
					"/>
			</g>
			<g>
				<path style="fill:#273140;" d="M1148.453,673.016l91.302-45.177c-0.63-18.318,0.382-34.82,2.367-52.829
					c1.927-17.486-6.45-39.935,2.172-56.064c19.463-36.411,50.662,54.767,54.71,66.145c8.078,22.703,16.156,45.405,24.234,68.108
					l-15.363,12.594l-152.558,41.325L1148.453,673.016z"/>
			</g>
		</g>
		<g>
			<path style="fill:#899195;" d="M533.242,540.885c-0.975-34.776-29.249-53.903-29.249-53.903l-38.998-2.608l-27.299,46.948
				l52.403,63.419c-8.934,72.341-30.8,139.366-30.8,139.366l23.5,3.566c3.657-16.914,8.691-112.05,10.167-141.205L533.242,540.885z"
				/>
		</g>
		<g>
			<polygon style="fill:#E8CBAE;" points="318.572,447.689 318.057,419.887 330.222,419.038 334.893,437.96 340.482,434.954 
				337.952,458.826 325.412,461.374 			"/>
		</g>
		<g>
			<g>
				<g>
					<g>
						<path style="fill:#58646C;" d="M297.375,496.476l-8.436-4.378c-3.188-1.654-4.431-5.58-2.777-8.767l85.922-165.582
							c1.654-3.188,5.579-4.431,8.767-2.777l8.436,4.378c3.188,1.654,4.431,5.579,2.777,8.767l-85.922,165.582
							C304.488,496.887,300.563,498.13,297.375,496.476z"/>
					</g>
					<g style="opacity:0.25;">
						<polygon points="354.896,350.873 360.954,388.071 377.666,355.864 359.242,343.824 						"/>
					</g>
					<g>
						
							<ellipse transform="matrix(0.7071 -0.7071 0.7071 0.7071 -61.5673 369.4808)" style="fill:#F1F8FF;" cx="415.219" cy="259.059" rx="103.507" ry="103.507"/>
					</g>
					<g>
						<g>
							<path style="fill:#CCE1E8;" d="M364.886,356.057c-53.485-27.754-74.419-93.846-46.665-147.332
								c27.754-53.485,93.847-74.419,147.332-46.665c53.485,27.754,74.419,93.847,46.665,147.332S418.371,383.811,364.886,356.057z
								 M460.235,172.309c-47.834-24.822-106.944-6.099-131.766,41.735s-6.099,106.944,41.735,131.766
								c47.834,24.822,106.944,6.099,131.766-41.735C526.791,256.24,508.069,197.13,460.235,172.309z"/>
						</g>
					</g>
				</g>
			</g>
			<g>
				<g style="opacity:0.25;">
					<polygon points="489.861,254.075 365.465,288.302 359.891,277.216 368.663,297.866 493.66,262.403 					"/>
				</g>
				<g>
					<polygon style="fill:#6BA98C;" points="346.952,251.476 371.157,248.693 378.763,273.15 481.451,238.951 495.013,259.795 
						369.141,295.616 					"/>
				</g>
			</g>
		</g>
		<g>
			<g>
				<g>
					<g>
						<path style="fill:#58646C;" d="M748.996,847.816l-8.409-4.431c-3.177-1.674-4.396-5.607-2.722-8.785l86.961-165.038
							c1.674-3.177,5.607-4.396,8.785-2.722l8.409,4.431c3.177,1.674,4.396,5.607,2.722,8.785l-86.961,165.038
							C756.106,848.272,752.173,849.491,748.996,847.816z"/>
					</g>
					<g style="opacity:0.25;">
						<polygon points="807.43,702.578 813.255,739.813 830.169,707.713 811.821,695.556 						"/>
					</g>
					<g>
						
							<ellipse transform="matrix(0.7071 -0.7071 0.7071 0.7071 -177.8168 793.0022)" style="fill:#F1F8FF;" cx="868.33" cy="611.145" rx="103.507" ry="103.507"/>
					</g>
					<g>
						<g>
							<path style="fill:#CCE1E8;" d="M817.388,707.825c-53.31-28.09-73.827-94.313-45.738-147.622
								c28.09-53.31,94.312-73.828,147.622-45.738c53.31,28.09,73.828,94.313,45.738,147.622
								C936.92,715.397,870.697,735.914,817.388,707.825z M913.89,524.679c-47.677-25.122-106.903-6.771-132.025,40.906
								c-25.122,47.677-6.772,106.904,40.905,132.025c47.677,25.122,106.904,6.772,132.026-40.906
								C979.917,609.028,961.567,549.801,913.89,524.679z"/>
						</g>
					</g>
				</g>
			</g>
			<g>
				<g style="opacity:0.25;">
					<polygon points="943.002,606.631 818.393,640.075 812.889,628.954 821.531,649.659 946.748,614.983 					"/>
				</g>
				<g>
					<polygon style="fill:#6BA98C;" points="800.112,603.133 824.333,600.502 831.786,625.007 934.687,591.454 948.118,612.383 
						822.023,647.412 					"/>
				</g>
			</g>
		</g>
		<g>
			<g>
				<g>
					<g>
						<path style="fill:#58646C;" d="M1023.879,489.309l-9.475-0.744c-3.581-0.281-6.255-3.412-5.974-6.992l14.603-185.975
							c0.281-3.58,3.412-6.255,6.992-5.974l9.475,0.744c3.58,0.281,6.255,3.412,5.974,6.992l-14.603,185.975
							C1030.59,486.916,1027.46,489.59,1023.879,489.309z"/>
					</g>
					<g style="opacity:0.25;">
						<polygon points="1020.111,332.802 1040.187,364.698 1043.027,328.525 1021.367,324.616 						"/>
					</g>
					<g>
						
							<ellipse transform="matrix(0.7071 -0.7071 0.7071 0.7071 145.6617 801.135)" style="fill:#F1F8FF;" cx="1039.886" cy="224.738" rx="103.507" ry="103.507"/>
					</g>
					<g>
						<g>
							<path style="fill:#CCE1E8;" d="M1031.332,333.683c-60.072-4.717-105.107-57.427-100.39-117.499
								c4.717-60.072,57.427-105.107,117.499-100.39c60.072,4.717,105.107,57.427,100.391,117.499
								C1144.114,293.365,1091.404,338.4,1031.332,333.683z M1047.537,127.304c-53.725-4.218-100.866,36.058-105.085,89.784
								c-4.219,53.725,36.058,100.866,89.784,105.085c53.725,4.219,100.866-36.058,105.085-89.784
								S1101.262,131.523,1047.537,127.304z"/>
						</g>
					</g>
				</g>
			</g>
			<g>
				<g style="opacity:0.25;">
					<polygon points="1106.686,191.061 1005.462,271.059 996.008,263.021 1012.134,278.621 1113.429,197.251 					"/>
				</g>
				<g>
					<polygon style="fill:#6BA98C;" points="974.062,244.359 995.268,232.363 1011.803,251.923 1093.046,180.41 1113.659,194.321 
						1011.697,276.362 					"/>
				</g>
			</g>
		</g>
		<g>
			<path style="fill:#E7CAAD;" d="M340.787,433.805c-1.763-1.179-3.946-1.716-6.055-1.489c-0.251,0.027-0.512,0.069-0.714,0.22
				c-0.247,0.184-0.359,0.494-0.458,0.786c-0.782,2.305-1.564,4.61-2.345,6.915c2.913,0.342,5.793,0.968,8.585,1.866
				c0.631-2.537,0.936-5.155,0.905-7.769L340.787,433.805z"/>
		</g>
		<g>
			<g>
				<path style="fill:#E7CAAD;" d="M767.349,737.78l6.27,11.705l11.261,3.212l0.531,2.732l-3.337,0.79
					c5.189-1.262,13.441,12.376,14.919,15.516c0.528,1.122,1.011,2.327,0.902,3.562c-0.135,1.533-1.151,2.829-2.163,3.989
					c-2.4,2.75-5.026,5.304-7.841,7.627c-0.639,0.527-1.338,1.063-2.161,1.145c-1.226,0.122-2.291-0.78-3.183-1.63
					c-8.127-7.738-15.183-14.095-18.635-24.756l-9.277-15.651L767.349,737.78z"/>
			</g>
			<g>
				<polygon style="fill:#2E4661;" points="781.037,740.992 742,638 761,579 751.788,475.802 675,607 673,634 753.729,764.699 				
					"/>
			</g>
		</g>
	</g>
</g>
</svg>
