<?xml version="1.0" encoding="utf-8"?>
<!-- Generator: Adobe Illustrator 27.5.0, SVG Export Plug-In . SVG Version: 6.00 Build 0)  -->
<svg version="1.1" id="Layer" xmlns="http://www.w3.org/2000/svg" xmlns:xlink="http://www.w3.org/1999/xlink" x="0px" y="0px"
	 viewBox="0 0 480 450" style="enable-background:new 0 0 480 450;" xml:space="preserve">
<g>
	<g>
		<rect x="0" style="fill:#FFFFFF;" width="480" height="450"/>
		<path style="fill:#A9D6FF;" d="M479.995,0v101.33c-4.9,0.91-9.96,1.39-15.13,1.39c-45.54,0-82.45-36.91-82.45-82.45
			c0-7,0.87-13.79,2.52-20.27H479.995z"/>
		<path style="fill:#FFF454;" d="M479.995,403.9V450h-46.1C433.895,424.54,454.535,403.9,479.995,403.9z"/>
		
			<ellipse transform="matrix(0.1586 -0.9873 0.9873 0.1586 -385.8258 386.1095)" style="fill:#FFF454;" cx="33.628" cy="419.43" rx="14.096" ry="14.096"/>
		
			<ellipse transform="matrix(0.9231 -0.3845 0.3845 0.9231 -14.0408 184.8271)" style="fill:#FFF454;" cx="455.175" cy="127.525" rx="7.832" ry="7.832"/>
		<circle style="fill:#A0D859;" cx="78.95" cy="35.12" r="14.096"/>
		<path style="fill:#A9D6FF;" d="M79.542,69.613c0,3.429-2.78,6.209-6.209,6.209c-3.429,0-6.209-2.78-6.209-6.209
			c0-3.429,2.78-6.209,6.209-6.209C76.762,63.404,79.542,66.184,79.542,69.613z"/>
		<circle style="fill:#A0D859;" cx="51.128" cy="392.995" r="5.88"/>
		<path style="fill:#FF8A9D;" d="M66.215,0c-11.47,26.49-36.43,45.78-66.22,49.18V0H66.215z"/>
	</g>
	<g>
		<g>
			<g>
				<polygon style="fill:#D9EDFF;" points="305.601,203.048 309.419,214.23 327.467,218.797 310.289,224.306 308.445,235.651 
					294.024,227.867 274.811,230.324 283.092,220.002 273.071,210.17 292.603,211.566 				"/>
			</g>
			<g>
				<polygon style="fill:#D9EDFF;" points="392.162,234.219 385.887,245.012 397.703,254.145 378.038,253.991 366.748,263.298 
					360.836,252.424 342.045,249.035 358.058,242.456 357.728,231.066 373.535,237.88 				"/>
			</g>
			<g>
				<polygon style="fill:#D9EDFF;" points="441.079,286.74 426.338,294.252 428.701,305.57 411.758,299.743 393.919,304.509 
					398.19,293.391 384.814,285.018 404.41,283.976 413.975,274.035 421.793,284.511 				"/>
			</g>
			<g>
				<polygon style="fill:#D9EDFF;" points="425.618,327.471 423.35,338.789 438.16,346.31 418.884,348.53 411.153,358.987 
					401.507,349.047 381.899,347.986 395.227,339.623 390.847,328.513 408.724,333.289 				"/>
			</g>
			<g>
				<polygon style="fill:#D9EDFF;" points="389.556,377.029 377.811,386.145 384.161,396.946 365.524,393.267 349.778,400.072 
					349.996,388.673 333.923,382.085 352.677,378.714 358.498,367.84 369.877,377.155 				"/>
			</g>
			<g>
				<polygon style="fill:#D9EDFF;" points="296.468,392.452 298.284,403.797 315.461,409.397 297.402,413.873 293.585,425.037 
					280.584,416.465 261.052,417.779 271.071,407.992 262.831,397.635 282.025,400.172 				"/>
			</g>
			<g>
				<polygon style="fill:#D9EDFF;" points="221.38,395.741 213.163,406.081 223.23,415.885 203.683,414.517 190.731,423.062 
					186.867,411.889 168.788,407.359 185.934,401.813 187.747,390.468 202.199,398.216 				"/>
			</g>
			<g>
				<polygon style="fill:#D9EDFF;" points="146.443,225.775 146.179,237.165 162.22,243.789 143.42,247.115 137.567,257.989 
					126.22,248.655 106.556,248.755 118.347,239.649 112.045,228.838 130.666,232.544 				"/>
			</g>
			<g>
				<polygon style="fill:#D9EDFF;" points="114.057,277.798 100.697,286.143 105.015,297.253 87.153,292.45 70.244,298.24 
					72.558,286.931 57.779,279.374 77.071,277.2 84.866,266.742 94.464,276.71 				"/>
			</g>
			<g>
				<polygon style="fill:#D9EDFF;" points="101.817,321.256 97.468,332.366 110.828,340.766 91.232,341.772 81.62,351.685 
					73.849,341.201 54.547,338.945 69.335,331.46 67.05,320.133 83.947,325.986 				"/>
			</g>
			<g>
				<polygon style="fill:#D9EDFF;" points="128.785,362.513 134.634,373.405 153.426,376.812 137.365,383.364 137.618,394.763 
					121.841,387.913 103.229,391.546 109.536,380.754 97.767,371.611 117.448,371.793 				"/>
			</g>
			<g>
				<polygon style="fill:#D9EDFF;" points="235.265,208.214 225.182,217.982 233.391,228.357 214.197,225.784 199.739,233.477 
					197.954,222.132 180.808,216.514 198.898,212.056 202.778,200.892 215.717,209.5 				"/>
			</g>
		</g>
		<g>
			<g style="enable-background:new    ;">
				<g>
					<polygon style="fill:#FFAF40;" points="272.483,209.983 272.454,220.002 262.434,210.17 262.462,200.151 					"/>
				</g>
				<g>
					<polygon style="fill:#FFAF40;" points="316.858,208.777 316.829,218.796 299.652,224.306 299.68,214.287 					"/>
				</g>
				<g>
					<polygon style="fill:#FF6D40;" points="283.415,217.848 283.387,227.867 264.174,230.323 264.203,220.304 					"/>
				</g>
				<g>
					<polygon style="fill:#FFAF40;" points="297.836,225.632 297.807,235.651 283.387,227.867 283.415,217.848 					"/>
				</g>
				<g>
					<polygon style="fill:#FF6D40;" points="299.68,214.287 299.652,224.306 297.807,235.651 297.836,225.632 					"/>
				</g>
				<g>
					<polygon style="fill:#FFF454;" points="294.992,193.029 298.81,204.21 316.858,208.777 299.68,214.287 297.836,225.632 
						283.415,217.848 264.203,220.304 272.483,209.983 262.462,200.151 281.994,201.546 					"/>
				</g>
			</g>
			<g style="enable-background:new    ;">
				<g>
					<polygon style="fill:#FF6D40;" points="347.449,232.437 347.421,242.456 347.091,231.066 347.119,221.047 					"/>
				</g>
				<g>
					<polygon style="fill:#FF6D40;" points="381.553,224.2 381.525,234.219 375.25,245.012 375.278,234.992 					"/>
				</g>
				<g>
					<polygon style="fill:#FFAF40;" points="350.228,242.405 350.199,252.424 331.407,249.035 331.436,239.016 					"/>
				</g>
				<g>
					<polygon style="fill:#FFAF40;" points="387.094,244.126 387.066,254.145 367.4,253.991 367.429,243.972 					"/>
				</g>
				<g>
					<polygon style="fill:#FFC640;" points="356.139,253.279 356.111,263.297 350.199,252.424 350.228,242.405 					"/>
				</g>
				<g>
					<polygon style="fill:#FF6D40;" points="367.429,243.972 367.4,253.991 356.111,263.297 356.139,253.279 					"/>
				</g>
				<g>
					<polygon style="fill:#FFF454;" points="381.553,224.2 375.278,234.992 387.094,244.126 367.429,243.972 356.139,253.279 
						350.228,242.405 331.436,239.016 347.449,232.437 347.119,221.047 362.926,227.861 					"/>
				</g>
			</g>
			<g style="enable-background:new    ;">
				<g>
					<polygon style="fill:#FFAF40;" points="387.581,283.372 387.553,293.391 374.177,285.018 374.205,274.999 					"/>
				</g>
				<g>
					<polygon style="fill:#FF6D40;" points="430.47,276.72 430.442,286.74 415.701,294.251 415.729,284.232 					"/>
				</g>
				<g>
					<polygon style="fill:#FF6D40;" points="401.149,289.723 401.12,299.743 383.282,304.509 383.31,294.49 					"/>
				</g>
				<g>
					<polygon style="fill:#FFAF40;" points="418.092,295.55 418.064,305.569 401.12,299.743 401.149,289.723 					"/>
				</g>
				<g>
					<polygon style="fill:#FFF454;" points="430.47,276.72 415.729,284.232 418.092,295.55 401.149,289.723 383.31,294.49 
						387.581,283.372 374.205,274.999 393.801,273.957 403.366,264.016 411.185,274.491 					"/>
				</g>
			</g>
			<g style="enable-background:new    ;">
				<g>
					<polygon style="fill:#FF6D40;" points="415.009,317.452 414.98,327.471 412.713,338.789 412.741,328.769 					"/>
				</g>
				<g>
					<polygon style="fill:#FFAF40;" points="384.618,329.603 384.59,339.622 380.21,328.513 380.238,318.494 					"/>
				</g>
				<g>
					<polygon style="fill:#FFC640;" points="427.551,336.29 427.523,346.31 408.247,348.53 408.275,338.51 					"/>
				</g>
				<g>
					<polygon style="fill:#FFAF40;" points="390.898,339.027 390.87,349.047 371.262,347.986 371.29,337.967 					"/>
				</g>
				<g>
					<polygon style="fill:#FFC640;" points="400.544,348.968 400.515,358.987 390.87,349.047 390.898,339.027 					"/>
				</g>
				<g>
					<polygon style="fill:#FF6D40;" points="408.275,338.51 408.247,348.53 400.515,358.987 400.544,348.968 					"/>
				</g>
				<g>
					<polygon style="fill:#FFF454;" points="415.009,317.452 412.741,328.769 427.551,336.29 408.275,338.51 400.544,348.968 
						390.898,339.027 371.29,337.967 384.618,329.603 380.238,318.494 398.115,323.269 					"/>
				</g>
			</g>
			<g style="enable-background:new    ;">
				<g>
					<polygon style="fill:#FF6D40;" points="378.947,367.009 378.918,377.028 367.174,386.144 367.203,376.125 					"/>
				</g>
				<g>
					<polygon style="fill:#FFAF40;" points="339.387,378.653 339.358,388.673 323.286,382.085 323.315,372.066 					"/>
				</g>
				<g>
					<polygon style="fill:#FFAF40;" points="373.552,386.926 373.524,396.946 354.887,393.267 354.915,383.247 					"/>
				</g>
				<g>
					<polygon style="fill:#FF6D40;" points="354.915,383.247 354.887,393.267 339.141,400.072 339.169,390.053 					"/>
				</g>
				<g>
					<polygon style="fill:#FFF454;" points="378.947,367.009 367.203,376.125 373.552,386.926 354.915,383.247 339.169,390.053 
						339.387,378.653 323.315,372.066 342.068,368.695 347.889,357.821 359.268,367.136 					"/>
				</g>
			</g>
			<g style="enable-background:new    ;">
				<g>
					<polygon style="fill:#FFC640;" points="260.462,397.973 260.434,407.992 252.194,397.635 252.223,387.616 					"/>
				</g>
				<g>
					<polygon style="fill:#FFAF40;" points="304.852,399.378 304.824,409.396 286.764,413.873 286.793,403.854 					"/>
				</g>
				<g>
					<polygon style="fill:#FFAF40;" points="269.975,406.445 269.946,416.465 250.415,417.779 250.443,407.76 					"/>
				</g>
				<g>
					<polygon style="fill:#FFC640;" points="282.976,415.017 282.948,425.037 269.946,416.465 269.975,406.445 					"/>
				</g>
				<g>
					<polygon style="fill:#FF6D40;" points="286.793,403.854 286.764,413.873 282.948,425.037 282.976,415.017 					"/>
				</g>
				<g>
					<polygon style="fill:#FFF454;" points="285.859,382.432 287.675,393.777 304.852,399.378 286.793,403.854 282.976,415.017 
						269.975,406.445 250.443,407.76 260.462,397.973 252.223,387.616 271.416,390.153 					"/>
				</g>
			</g>
			<g style="enable-background:new    ;">
				<g>
					<polygon style="fill:#FF6D40;" points="210.771,385.722 210.743,395.741 202.525,406.081 202.554,396.061 					"/>
				</g>
				<g>
					<polygon style="fill:#FFAF40;" points="176.258,401.87 176.23,411.889 158.151,407.358 158.179,397.339 					"/>
				</g>
				<g>
					<polygon style="fill:#FFAF40;" points="212.621,405.866 212.593,415.885 193.046,414.517 193.074,404.498 					"/>
				</g>
				<g>
					<polygon style="fill:#FFC640;" points="180.122,413.042 180.094,423.062 176.23,411.889 176.258,401.87 					"/>
				</g>
				<g>
					<polygon style="fill:#FF6D40;" points="193.074,404.498 193.046,414.517 180.094,423.062 180.122,413.042 					"/>
				</g>
				<g>
					<polygon style="fill:#FFF454;" points="210.771,385.722 202.554,396.061 212.621,405.866 193.074,404.498 180.122,413.042 
						176.258,401.87 158.179,397.339 175.325,391.793 177.138,380.448 191.59,388.196 					"/>
				</g>
			</g>
			<g style="enable-background:new    ;">
				<g>
					<polygon style="fill:#948E31;" points="135.835,215.756 135.806,225.775 135.542,237.165 135.57,227.146 					"/>
				</g>
				<g>
					<polygon style="fill:#FFC640;" points="107.738,229.629 107.71,239.648 101.407,228.838 101.436,218.819 					"/>
				</g>
				<g>
					<polygon style="fill:#FFAF40;" points="151.611,233.77 151.583,243.789 132.782,247.115 132.811,237.096 					"/>
				</g>
				<g>
					<polygon style="fill:#FFAF40;" points="115.611,238.636 115.583,248.655 95.919,248.755 95.947,238.736 					"/>
				</g>
				<g>
					<polygon style="fill:#FFC640;" points="126.958,247.969 126.93,257.988 115.583,248.655 115.611,238.636 					"/>
				</g>
				<g>
					<polygon style="fill:#FF6D40;" points="132.811,237.096 132.782,247.115 126.93,257.988 126.958,247.969 					"/>
				</g>
				<g>
					<polygon style="fill:#FFF454;" points="135.835,215.756 135.57,227.146 151.611,233.77 132.811,237.096 126.958,247.969 
						115.611,238.636 95.947,238.736 107.738,229.629 101.436,218.819 120.057,222.525 					"/>
				</g>
			</g>
			<g style="enable-background:new    ;">
				<g>
					<polygon style="fill:#FF6D40;" points="103.448,267.778 103.419,277.797 90.059,286.143 90.088,276.124 					"/>
				</g>
				<g>
					<polygon style="fill:#FFC640;" points="61.949,276.912 61.921,286.931 47.141,279.374 47.17,269.355 					"/>
				</g>
				<g>
					<polygon style="fill:#FFC640;" points="94.406,287.233 94.377,297.252 76.516,292.45 76.544,282.43 					"/>
				</g>
				<g>
					<polygon style="fill:#FF6D40;" points="76.544,282.43 76.516,292.45 59.606,298.24 59.635,288.221 					"/>
				</g>
				<g>
					<polygon style="fill:#FFF454;" points="103.448,267.778 90.088,276.124 94.406,287.233 76.544,282.43 59.635,288.221 
						61.949,276.912 47.17,269.355 66.462,267.18 74.257,256.723 83.855,266.691 					"/>
				</g>
			</g>
			<g style="enable-background:new    ;">
				<g>
					<polygon style="fill:#FFC640;" points="58.727,321.44 58.698,331.46 56.413,320.133 56.441,310.114 					"/>
				</g>
				<g>
					<polygon style="fill:#FF6D40;" points="91.208,311.237 91.18,321.256 86.831,332.366 86.859,322.346 					"/>
				</g>
				<g>
					<polygon style="fill:#FFAF40;" points="63.24,331.182 63.211,341.201 43.91,338.945 43.938,328.925 					"/>
				</g>
				<g>
					<polygon style="fill:#FFC640;" points="100.219,330.747 100.191,340.766 80.595,341.772 80.624,331.752 					"/>
				</g>
				<g>
					<polygon style="fill:#FFC640;" points="71.011,341.666 70.983,351.685 63.211,341.201 63.24,331.182 					"/>
				</g>
				<g>
					<polygon style="fill:#FF6D40;" points="80.624,331.752 80.595,341.772 70.983,351.685 71.011,341.666 					"/>
				</g>
				<g>
					<polygon style="fill:#FFF454;" points="91.208,311.237 86.859,322.346 100.219,330.747 80.624,331.752 71.011,341.666 
						63.24,331.182 43.938,328.925 58.727,321.44 56.441,310.114 73.339,315.967 					"/>
				</g>
			</g>
			<g style="enable-background:new    ;">
				<g>
					<polygon style="fill:#FFC640;" points="98.927,370.735 98.899,380.754 87.13,371.611 87.158,361.592 					"/>
				</g>
				<g>
					<polygon style="fill:#FF6D40;" points="142.817,366.793 142.789,376.812 126.728,383.363 126.757,373.345 					"/>
				</g>
				<g>
					<polygon style="fill:#FF6D40;" points="111.232,377.893 111.204,387.913 92.592,391.546 92.621,381.527 					"/>
				</g>
				<g>
					<polygon style="fill:#FFC640;" points="127.009,384.744 126.98,394.763 111.204,387.913 111.232,377.893 					"/>
				</g>
				<g>
					<polygon style="fill:#FFF454;" points="118.176,352.494 124.025,363.386 142.817,366.793 126.757,373.345 127.009,384.744 
						111.232,377.893 92.621,381.527 98.927,370.735 87.158,361.592 106.839,361.773 					"/>
				</g>
			</g>
			<g style="enable-background:new    ;">
				<g>
					<polygon style="fill:#FF6D40;" points="224.656,198.194 224.628,208.213 214.545,217.982 214.573,207.963 					"/>
				</g>
				<g>
					<polygon style="fill:#FFAF40;" points="187.345,212.113 187.317,222.132 170.171,216.514 170.199,206.495 					"/>
				</g>
				<g>
					<polygon style="fill:#FFAF40;" points="222.782,218.338 222.754,228.357 203.56,225.784 203.588,215.764 					"/>
				</g>
				<g>
					<polygon style="fill:#FFC640;" points="189.13,223.458 189.101,233.477 187.317,222.132 187.345,212.113 					"/>
				</g>
				<g>
					<polygon style="fill:#FF6D40;" points="203.588,215.764 203.56,225.784 189.101,233.477 189.13,223.458 					"/>
				</g>
				<g>
					<polygon style="fill:#FFF454;" points="224.656,198.194 214.573,207.963 222.782,218.338 203.588,215.764 189.13,223.458 
						187.345,212.113 170.199,206.495 188.289,202.036 192.169,190.872 205.108,199.481 					"/>
				</g>
			</g>
		</g>
	</g>
	<g>
		<path style="fill:#A9D6FF;" d="M55.514,154.878l75.654-43.679c1.069-0.617,2.048-0.671,2.809-0.263l0-0.001l2.25,1.092
			l-0.82,0.973l-0.028-0.009c0.112,0.452,0.175,0.959,0.175,1.523v43.999c0,3.229-1.964,6.981-4.386,8.38l-75.654,43.679
			c-0.246,0.142-0.485,0.246-0.719,0.33l0.01,1.142l-2.033-1.178c-1.001-0.494-1.643-1.766-1.643-3.611v-43.998
			C51.128,160.029,53.092,156.277,55.514,154.878z"/>
		<path style="fill:#378FE9;" d="M57.643,211.8l75.654-43.679c2.422-1.398,4.386-5.15,4.386-8.38v-43.999
			c0-3.229-1.964-4.714-4.386-3.316l-75.654,43.679c-2.422,1.398-4.386,5.15-4.386,8.38v43.999
			C53.257,211.714,55.221,213.198,57.643,211.8z"/>
		<g>
			<g>
				
					<ellipse transform="matrix(0.5047 -0.8633 0.8633 0.5047 -120.339 152.5861)" style="fill:#FFFFFF;" cx="72.804" cy="181.165" rx="21.716" ry="12.537"/>
			</g>
			<g>
				<path style="fill:#FAD3AA;" d="M66.838,180.183c0,4.623,2.711,6.805,6.056,4.874c3.345-1.931,6.056-7.244,6.056-11.866
					c0-4.623-2.711-6.805-6.056-4.874C69.549,170.248,66.838,175.561,66.838,180.183z"/>
				<path style="fill:#333333;" d="M67.847,178.731l3.5-2.021c0.18-0.104,0.326-0.383,0.326-0.624v-0.106
					c0-0.24-0.146-0.351-0.326-0.247l-3.5,2.021c-0.18,0.104-0.326,0.383-0.326,0.623v0.106
					C67.52,178.724,67.666,178.835,67.847,178.731z"/>
				<path style="fill:#333333;" d="M74.358,174.971l3.5-2.021c0.18-0.104,0.326-0.383,0.326-0.623v-0.106
					c0-0.24-0.146-0.351-0.326-0.247l-3.5,2.021c-0.18,0.104-0.326,0.383-0.326,0.623v0.106
					C74.032,174.965,74.178,175.075,74.358,174.971z"/>
				<path style="fill:#333333;" d="M67.105,177.256l2.92-5.226c0.212-0.38,0.507-0.695,0.816-0.874l4.585-2.647
					c0.344-0.198,0.668-0.205,0.881-0.019l2.377,2.08c0-1.597-0.563-2.724-1.48-3.24c-0.911-0.519-2.177-0.435-3.569,0.369
					l-1.487,0.858C69.364,170.165,67.105,174.054,67.105,177.256z"/>
				<polygon style="fill:#FAD3AA;" points="71.031,189.159 74.891,186.931 74.891,180.877 71.031,183.105 				"/>
				<path style="fill:#A0D859;" d="M63.035,200.478c2.629,1.075,6.048,0.652,9.778-1.501c3.729-2.153,7.149-5.678,9.778-9.789
					c-0.281-4.304-3.53-5.945-7.488-3.659l-4.579,2.643C66.558,190.462,63.316,195.85,63.035,200.478z"/>
				<polygon style="fill:#FAD3AA;" points="74.891,185.651 72.961,190.971 71.031,187.88 				"/>
				<polygon style="fill:#56AA39;" points="71.031,187.88 72.961,190.971 74.891,185.652 76.439,187.723 72.961,198.883 
					69.483,191.739 				"/>
			</g>
		</g>
		<path style="fill:#272262;" d="M53.257,163.674v6.371l84.425-48.743v-6.371c0-2.778-1.965-3.898-4.386-2.501l-75.654,43.679
			C55.222,157.507,53.257,160.896,53.257,163.674z"/>
		<g>
			<path style="fill:#FFFFFF;" d="M94.1,157.66l37.9-21.882c0.848-0.49,1.535-1.803,1.535-2.933v-0.688
				c0-1.13-0.687-1.65-1.535-1.16l-37.9,21.882c-0.848,0.49-1.535,1.803-1.535,2.933v0.688
				C92.565,157.63,93.253,158.149,94.1,157.66z"/>
			<path style="fill:#FFFFFF;" d="M94.1,166.593l37.9-21.882c0.848-0.49,1.535-1.803,1.535-2.933v-0.688
				c0-1.13-0.687-1.65-1.535-1.16l-37.9,21.882c-0.848,0.489-1.535,1.803-1.535,2.933v0.688
				C92.565,166.563,93.253,167.082,94.1,166.593z"/>
			<path style="fill:#FFFFFF;" d="M94.1,175.525l37.9-21.882c0.848-0.49,1.535-1.803,1.535-2.933v-0.688
				c0-1.13-0.687-1.65-1.535-1.16l-37.9,21.882c-0.848,0.489-1.535,1.802-1.535,2.933v0.688
				C92.565,175.495,93.253,176.015,94.1,175.525z"/>
			<path style="fill:#FFFFFF;" d="M94.1,184.458l37.9-21.882c0.848-0.49,1.535-1.803,1.535-2.933v-0.688
				c0-1.13-0.687-1.65-1.535-1.16l-37.9,21.882c-0.848,0.489-1.535,1.802-1.535,2.933v0.688
				C92.565,184.428,93.253,184.948,94.1,184.458z"/>
		</g>
		<g>
			<path style="fill:#FFFFFF;" d="M72.804,153.832c0,1.459,1.031,2.047,2.302,1.313c1.272-0.734,2.302-2.512,2.302-3.972
				c0-1.459-1.031-2.047-2.302-1.313C73.835,150.595,72.804,152.373,72.804,153.832z"/>
			<path style="fill:#FFFFFF;" d="M67.395,156.955c0,1.459,1.031,2.047,2.302,1.313c1.272-0.734,2.303-2.512,2.303-3.972
				c0-1.459-1.031-2.047-2.303-1.313C68.426,153.718,67.395,155.496,67.395,156.955z"/>
			<path style="fill:#FFFFFF;" d="M61.986,160.078c0,1.459,1.031,2.047,2.302,1.313c1.272-0.734,2.303-2.512,2.303-3.971
				s-1.031-2.047-2.303-1.313C63.017,156.841,61.986,158.619,61.986,160.078z"/>
			<path style="fill:#FFFFFF;" d="M56.577,163.201c0,1.459,1.031,2.047,2.302,1.313c1.271-0.734,2.303-2.512,2.303-3.971
				c0-1.459-1.031-2.047-2.303-1.313C57.608,159.964,56.577,161.742,56.577,163.201z"/>
		</g>
	</g>
	<g>
		<g>
			<polygon style="fill:#D9EDFF;" points="289.54,239.838 361.228,281.227 361.228,302.478 324.455,323.713 297.617,323.713 
				269.325,239.838 			"/>
			<g>
				<path style="fill:#D9D9D9;" d="M314.488,312.579c-0.036,0.095-0.078,0.181-0.116,0.273
					c-5.112,12.495-18.617,10.738-18.617,10.738l1.2-12.636l-78.02-44.93c-5.706-3.295-10.332-12.133-10.332-19.742V49.079
					l-11.227-4.98c0,0,4.89-12.451,17.705-11.209c0.331,0.013,0.67,0.057,1.017,0.125c0.038,0.006,0.074,0.008,0.113,0.014
					l0.008,0.014c0.867,0.186,1.775,0.527,2.717,1.071l86.009,49.543c5.706,3.295,10.332,12.133,10.332,19.742l0,204.355
					c0,1.833-0.274,3.42-0.762,4.739l0.005,0.008C314.51,312.528,314.498,312.552,314.488,312.579z"/>
				<polygon style="fill:#AEAEAE;" points="299.473,129.686 315.281,120.558 315.274,116.281 297.618,126.475 				"/>
				<path style="fill:#999999;" d="M292.959,90.577L206.95,41.035c-5.707-3.295-10.332,0.202-10.332,7.811v204.355
					c0,7.608,4.626,16.447,10.332,19.742l86.009,49.543c5.706,3.294,10.332-0.202,10.332-7.811V110.319
					C303.291,102.711,298.666,93.872,292.959,90.577z"/>
				<g>
					<path d="M258.044,75.295l-23.36-13.487c-0.868-0.501-1.571,0.031-1.571,1.188l0,0c0,1.157,0.703,2.501,1.571,3.002
						l23.36,13.487c0.868,0.501,1.571-0.031,1.571-1.188l0,0C259.615,77.139,258.912,75.795,258.044,75.295z"/>
					<g>
						<g>
							<path style="fill:#26262E;" d="M267.669,83.145c0-0.999-0.706-2.216-1.576-2.718c-0.87-0.503-1.576-0.101-1.576,0.898
								c0,0.998,0.705,2.215,1.576,2.718C266.964,84.546,267.669,84.143,267.669,83.145z"/>
						</g>
						<g>
							<path style="fill:#26262E;" d="M272.112,85.71c0-0.999-0.706-2.215-1.576-2.718c-0.87-0.502-1.576-0.1-1.576,0.898
								c0,0.998,0.706,2.215,1.576,2.718C271.406,87.111,272.112,86.708,272.112,85.71z"/>
						</g>
					</g>
				</g>
				<path d="M289.486,100.475l-79.063-45.532c-5.282-3.049-9.563,0.187-9.563,7.229v189.141c0,7.042,4.281,15.223,9.563,18.272
					l79.063,45.532c5.282,3.049,9.563-0.188,9.563-7.229V118.747C299.049,111.705,294.768,103.524,289.486,100.475z"/>
				<path style="fill:#A9D6FF;" d="M294.505,107.912c-1.612-2.792-3.65-4.993-5.735-6.196l-79.062-45.533
					c-1.302-0.751-3.193-1.448-4.827-0.505c-1.645,0.95-2.59,3.318-2.59,6.495l0.001,189.14c0,3.458,1.134,7.408,3.112,10.834
					c1.613,2.793,3.65,4.993,5.735,6.198l79.061,45.532c1.301,0.752,3.193,1.448,4.827,0.505c1.645-0.95,2.59-3.316,2.589-6.493
					V118.746C297.617,115.288,296.483,111.338,294.505,107.912z"/>
				<linearGradient id="SVGID_1_" gradientUnits="userSpaceOnUse" x1="249.6695" y1="136.3729" x2="250.111" y2="197.0109">
					<stop  offset="0" style="stop-color:#A9D6FF"/>
					<stop  offset="1" style="stop-color:#DBEEFF"/>
				</linearGradient>
				<polygon style="fill:url(#SVGID_1_);" points="283.231,215.305 216.534,176.848 216.534,115.996 283.231,154.454 				"/>
				<g>
					<path style="fill:#A9D6FF;" d="M276.843,222.548c-0.01,2.307-0.085,4.6-0.257,6.812c-0.08,0.987-0.176,1.959-0.297,2.905
						c0,0.006,0,0.006,0,0.006c-0.084,0.658-0.178,1.304-0.282,1.938c-0.146,0.82-0.306,1.62-0.487,2.397
						c-0.201,0.823-0.428,1.608-0.685,2.357c0,0,0,0,0,0.006c-0.201,0.59-0.421,1.156-0.667,1.69
						c-0.257,0.598-0.548,1.147-0.865,1.663c-0.041,0.064-0.082,0.127-0.122,0.191c-0.256,0.388-0.531,0.736-0.822,1.045v0.006
						c-0.77,0.807-1.656,1.377-2.648,1.757c-0.259,0.1-0.524,0.191-0.793,0.267c-0.336,0.085-0.681,0.158-1.032,0.222
						c-0.284,0.044-0.574,0.08-0.868,0.101c-0.716,0.067-1.468,0.073-2.24,0.026c-0.304-0.014-0.614-0.037-0.924-0.071
						c-0.157-0.01-0.315-0.026-0.472-0.047c-0.309-0.034-0.629-0.075-0.949-0.127c-0.076-0.009-0.157-0.021-0.239-0.034
						c-0.507-0.08-1.02-0.18-1.537-0.295c-0.325-0.072-0.654-0.154-0.984-0.246c-0.583-0.147-1.167-0.324-1.755-0.521
						c-0.335-0.108-0.674-0.23-1.009-0.355c-1.683-0.619-3.391-1.398-5.104-2.321c-0.365-0.195-0.724-0.393-1.089-0.6
						c-1.023-0.579-2.046-1.205-3.064-1.874c-0.405-0.26-0.815-0.539-1.22-0.816c-1.413-0.969-2.82-2.012-4.217-3.124
						c-0.461-0.368-0.921-0.741-1.376-1.118c0,0.006,0,0.006-0.005-0.003c-0.987-0.821-1.968-1.673-2.939-2.549
						c-0.334-0.3-0.668-0.605-0.997-0.914c-0.071-0.065-0.137-0.126-0.207-0.191c-0.733-0.685-1.472-1.395-2.2-2.13
						c-0.359-0.355-0.713-0.713-1.067-1.083c-0.602-0.625-1.193-1.262-1.774-1.916c-0.354-0.393-0.708-0.792-1.051-1.203
						c-1.369-1.61-2.672-3.304-3.858-5.088c-0.338-0.507-0.666-1.019-0.984-1.543c-0.434-0.709-0.847-1.434-1.24-2.172
						c-0.262-0.497-0.519-1.003-0.76-1.512c-0.081-0.164-0.161-0.333-0.237-0.5c-0.815-1.778-1.463-3.545-1.973-5.303
						c0,0,0,0,0-0.006c-0.165-0.564-0.32-1.127-0.46-1.688c0,0,0,0,0-0.006c-0.559-2.306-0.91-4.59-1.114-6.841
						c-0.058-0.583-0.102-1.163-0.135-1.737c-0.072-1.064-0.113-2.116-0.134-3.156c-0.008-0.472-0.016-0.938-0.02-1.402
						c-0.014-1.608,0.008-3.19,0.03-4.743c0.006-0.09,0.006-0.178,0.006-0.265c0.006-0.3,0.008-0.603,0.014-0.903
						c0.008-0.615,0.02-1.226,0.028-1.841c0.007-0.405,0.009-0.807,0.015-1.212c0.008-0.766,0.021-1.523,0.03-2.29
						c0.007-0.393,0.013-0.792,0.02-1.191c0.014-0.822,0.027-1.643,0.046-2.467c0.007-0.463,0.019-0.923,0.026-1.386
						c0.036-1.392,0.073-2.785,0.129-4.165c0.018-0.55,0.04-1.092,0.068-1.637c0.084-1.785,0.188-3.559,0.327-5.306
						c0.043-0.577,0.091-1.15,0.144-1.715c0.223-2.416,0.518-4.78,0.908-7.075c0.104-0.623,0.219-1.233,0.338-1.841v-0.006
						c0.057-0.305,0.119-0.602,0.181-0.899c0.933-4.427,2.331-8.541,4.265-12.005c0-0.006,0.005-0.009,0.005-0.015
						c0.778-1.38,1.636-2.661,2.59-3.805v-0.006c0.521-0.643,1.077-1.23,1.658-1.785c0.892-0.853,1.845-1.605,2.873-2.238
						l0.005-0.003c1.1-0.679,2.275-1.232,3.536-1.636c6.966-2.23,18.726,7.511,24.655,17.591c0.065,0.114,0.136,0.231,0.191,0.34
						c0.701,1.197,1.341,2.399,1.945,3.616c0.483,0.971,0.936,1.948,1.369,2.936c0.357,0.81,0.699,1.622,1.021,2.435
						c0.211,0.532,0.417,1.061,0.618,1.593c0.256,0.681,0.507,1.365,0.743,2.045c0.381,1.087,0.742,2.173,1.083,3.26
						c0.19,0.596,0.376,1.2,0.556,1.796c0.345,1.154,0.676,2.304,0.991,3.445c0.14,0.502,0.275,1.002,0.405,1.498
						c0.18,0.66,0.355,1.322,0.52,1.979c0.735,2.846,1.398,5.686,1.985,8.505c0.119,0.549,0.234,1.094,0.333,1.637
						c0.403,1.964,0.76,3.913,1.082,5.853c0.084,0.481,0.164,0.966,0.233,1.444c0.272,1.695,0.514,3.383,0.725,5.055
						c0.059,0.42,0.108,0.84,0.157,1.254c0.069,0.548,0.133,1.099,0.191,1.642c0.049,0.414,0.093,0.825,0.132,1.233
						c0.176,1.685,0.321,3.353,0.436,5.008c0.034,0.411,0.063,0.819,0.086,1.219c0.052,0.836,0.1,1.664,0.137,2.492
						c0.028,0.641,0.06,1.297,0.088,1.967c0.019,0.396,0.037,0.799,0.051,1.198c0.087,2.119,0.159,4.334,0.176,6.557
						C276.843,221.258,276.845,221.902,276.843,222.548z"/>
					<g>
						<path style="fill:#4367C7;" d="M263.718,154.562c-0.429-0.507-0.859-1.015-1.283-1.519l-1.283-1.513
							c-6.225-7.338-12.878-14.376-19.354-16.218c-3.083-0.881-5.367-0.15-7.787,0.618c-0.671,0.216-1.363,0.438-2.085,0.625
							c-0.468,0.119-0.935,0.237-1.413,0.339c0.892-0.853,1.845-1.605,2.873-2.238l0.005-0.003c2.502-0.802,4.866-1.556,8.157-0.618
							c6.806,1.935,13.666,9.182,20.073,16.731l0.151,0.182C262.474,152.143,263.114,153.345,263.718,154.562z"/>
					</g>
					<g>
						<path style="fill:#FFFFFF;" d="M241.148,193.679c-0.901,0.265-1.89,0.495-2.914,0.689c-1.466,0.265-2.985,0.477-4.451,0.671
							c-4.574,0.636-9.308,1.289-12.858,3.921c-0.336,0.247-0.653,0.512-0.954,0.777c-0.053-0.583-0.106-1.148-0.141-1.731
							c0.106-0.088,0.212-0.159,0.336-0.247c3.638-2.72,8.442-3.373,13.07-4.009c1.466-0.212,2.985-0.424,4.433-0.689
							c0.601-0.106,1.183-0.229,1.749-0.371h0.018L241.148,193.679z"/>
						<path style="fill:#FFFFFF;" d="M226.613,185.29c-1.236,0.229-2.508,0.406-3.744,0.547c-0.971,0.106-2.031,0.141-3.109-0.141
							c0.018-0.406,0.018-0.812,0.018-1.219c0.865,0.194,1.748,0.141,2.578,0.053c0.795-0.088,1.607-0.194,2.402-0.318
							L226.613,185.29z"/>
						<path style="fill:#4367C7;" d="M252.292,175.488c0,2.773-0.018,5.263-0.477,7.506c-0.812,3.974-2.95,6.941-6.482,8.937
							c-1.219,0.707-2.614,1.289-4.186,1.748l-1.713-0.989c1.678-0.424,3.144-0.953,4.451-1.607
							c3.815-1.908,6.093-4.857,6.923-8.902c0.442-2.155,0.477-4.557,0.477-7.276c-0.018-2.632-1.113-5.422-2.738-6.959
							c-1.484-1.377-3.038-1.431-4.274-0.123c-1.289,1.36-2.031,3.409-2.755,5.404c-0.424,1.166-0.865,2.367-1.413,3.426
							c-1.925,3.779-5.034,5.969-8.566,7.294h-0.018c-1.572,0.601-3.232,1.024-4.91,1.342l-1.855-1.077
							c1.748-0.265,3.479-0.636,5.157-1.183c3.833-1.236,7.241-3.409,9.272-7.383c0.512-1.042,0.954-2.208,1.36-3.356
							c0.759-2.049,1.536-4.186,2.896-5.616c1.484-1.572,3.497-1.466,5.404,0.336C250.897,168.935,252.292,172.344,252.292,175.488z
							"/>
					</g>
					<g>
						<path style="fill:#4367C7;" d="M247.577,175.576c-0.283-1.113-0.742-1.643-1.077-1.89c-0.954-0.706-1.908,0.071-2.543,0.813
							c-0.636,0.759-1.095,1.695-1.536,2.614c-0.23,0.459-0.459,0.936-0.707,1.378c-1.36,2.367-2.543,3.956-3.85,5.157
							c-0.9,0.83-1.907,1.59-2.967,2.243c-1.254,0.777-2.596,1.413-3.974,1.89l1.59,0.918c1.307-0.53,2.596-1.201,3.779-1.996
							c0.848-0.565,1.643-1.183,2.384-1.872c1.342-1.254,2.561-2.879,3.938-5.298c0.265-0.459,0.495-0.954,0.724-1.413
							c0.459-0.918,0.883-1.784,1.466-2.49c0.724-0.848,1.36-1.024,1.554-0.865c0.035,0.018,0.141,0.177,0.247,0.618
							c0.318,1.342-0.088,3.303-0.318,4.398c-0.318,1.466-0.865,2.791-1.625,3.939c-1.448,2.155-3.515,3.462-5.705,4.521
							c-0.795,0.371-1.607,0.724-2.402,1.077c-0.547,0.247-1.113,0.494-1.678,0.724l1.537,0.901
							c0.265-0.124,0.548-0.229,0.813-0.353c1.042-0.459,2.137-0.936,3.197-1.501c1.943-1.024,3.797-2.331,5.122-4.309
							c0.813-1.201,1.395-2.614,1.731-4.203C247.541,179.338,247.983,177.272,247.577,175.576z"/>
						<path style="fill:#FFFFFF;" d="M232.511,188.698c-0.795,0.318-1.59,0.583-2.402,0.777c-2.261,0.548-4.645,0.636-7.082,0.23
							c-0.954-0.159-2.102-0.406-3.32-1.007c0.018-0.088,0.018-0.177,0.018-0.265c0-0.3,0-0.601,0.018-0.9
							c1.06,0.512,2.084,0.724,2.949,0.883c2.349,0.389,4.645,0.3,6.835-0.23c0.459-0.124,0.918-0.247,1.378-0.406h0.018
							L232.511,188.698z"/>
						<path style="fill:#FFFFFF;" d="M236.415,190.941c-2.208,0.954-4.468,1.89-6.888,2.438c-1.713,0.388-3.55,0.618-5.316,0.83
							c-1.501,0.177-3.038,0.353-4.504,0.636c-0.018-0.459-0.018-0.936-0.018-1.395c1.307-0.23,2.667-0.389,3.992-0.548
							c1.766-0.212,3.585-0.424,5.281-0.812c2.049-0.477,4.009-1.236,5.899-2.049h0.018L236.415,190.941z"/>
					</g>
					<g>
						<path style="fill:#FFFFFF;" d="M221.861,182.535c-0.689-0.018-1.378-0.124-2.049-0.336c0-0.265,0-0.547,0.018-0.83
							L221.861,182.535z"/>
						<path style="fill:#4367C7;" d="M275.871,202.174c-1.89-1.042-3.709-2.261-5.475-3.656c-5.193-4.133-9.784-9.943-12.61-15.948
							c-0.919-1.978-1.678-3.992-2.402-5.952c-0.724-1.961-1.484-3.992-2.402-5.917c-1.642-3.462-4.433-7.488-7.365-8.46
							c-1.042-0.336-2.102-0.283-3.25,0.194c-3.285,1.325-5.193,4.945-7.029,8.46c-0.742,1.431-1.519,2.914-2.384,4.221
							c-1.466,2.243-3.25,4.097-5.281,5.51c-0.3,0.212-0.601,0.406-0.901,0.583c-1.66,0.954-3.285,1.413-4.91,1.325l-2.031-1.166
							c-0.018-0.124,0-0.247,0-0.371c1.802,0.477,3.621,0.282,5.475-0.636c0.53-0.247,1.06-0.565,1.607-0.954
							c1.996-1.378,3.726-3.179,5.157-5.369c0.848-1.289,1.607-2.755,2.349-4.168c1.89-3.585,3.833-7.312,7.294-8.725
							c1.272-0.512,2.473-0.565,3.691-0.159c3.391,1.113,6.552,5.634,8.389,9.467c0.954,2.031,1.731,4.115,2.473,6.129
							c0.724,1.907,1.448,3.868,2.331,5.758c2.667,5.687,7.047,11.215,11.975,15.136c1.66,1.325,3.391,2.473,5.157,3.462
							C275.782,201.344,275.818,201.768,275.871,202.174z"/>
					</g>
					<g>
						<path style="fill:#FFFFFF;" d="M246.287,196.629c-0.548,0.406-1.113,0.759-1.696,1.06c-2.243,1.183-4.839,1.766-7.33,2.331
							c-0.565,0.124-1.13,0.247-1.678,0.371c-5.228,1.254-11.021,3.268-14.041,7.895c-0.159-0.565-0.318-1.13-0.459-1.696
							c1.59-2.172,3.797-3.727,6.252-4.91c2.437-1.183,5.122-1.96,7.665-2.578c0.548-0.124,1.113-0.265,1.678-0.389
							c2.473-0.548,5.016-1.113,7.206-2.278c0.336-0.177,0.671-0.371,1.007-0.6L246.287,196.629z"/>
						<path style="fill:#4367C7;" d="M276.383,208.391c-2.437-1.484-5.175-3.409-7.842-5.864c-2.649-2.438-6.34-6.482-8.849-11.869
							c-0.283-0.583-0.53-1.183-0.777-1.749c-0.424-0.971-0.83-1.907-1.307-2.79c-0.689-1.289-1.395-2.172-1.96-2.473
							c-0.389-0.212-0.759-0.177-1.113,0.141c-0.601,0.512-0.83,1.395-1.077,2.349c-0.088,0.388-0.194,0.794-0.336,1.183
							c-0.565,1.66-1.413,3.073-2.243,4.362c-0.565,0.866-1.166,1.678-1.819,2.402c-0.848,0.989-1.784,1.837-2.773,2.543
							l-1.395-0.795c1.06-0.654,2.031-1.484,2.949-2.455c0.759-0.813,1.484-1.731,2.137-2.755c0.813-1.272,1.643-2.649,2.19-4.221
							c0.124-0.353,0.212-0.742,0.318-1.13c0.265-1.007,0.53-2.049,1.254-2.667c0.548-0.477,1.166-0.53,1.89-0.141
							c0.865,0.477,1.819,1.625,2.737,3.303c0.53,0.989,0.971,2.013,1.395,2.985c0.23,0.565,0.477,1.13,0.742,1.695
							c2.349,5.016,5.811,8.831,8.319,11.127c2.526,2.331,5.14,4.15,7.471,5.599C276.33,207.596,276.365,208.003,276.383,208.391z"
							/>
					</g>
					<g>
						<path style="fill:#4367C7;" d="M275.539,199.296c-2.968-1.748-6.021-3.954-8.709-7.092c-2.855-3.335-5.345-7.73-7.606-13.423
							c-0.276-0.698-0.543-1.397-0.809-2.095c-0.698-1.82-1.416-3.699-2.292-5.489c-2.019-4.115-4.765-6.767-8.272-9.484
							c-0.683-0.527-1.954-1.513-2.44-2.994c-0.341-1.04-0.154-2.006,0.472-2.406c0.443-0.279,1.052-0.298,1.915-0.058
							c2.845,0.789,6.185,3.571,9.159,7.629c2.615,3.574,4.635,7.579,6.588,11.451c1.904,3.779,3.878,7.686,6.382,11.103
							c1.313,1.793,2.803,3.486,4.497,5.104c0.084,0.481,0.164,0.966,0.233,1.444c-2.003-1.857-3.762-3.817-5.297-5.909
							c-2.63-3.589-4.65-7.588-6.599-11.457c-1.909-3.782-3.878-7.692-6.377-11.1c-2.736-3.733-5.772-6.28-8.333-6.99
							c-0.67-0.186-1.127-0.184-1.432,0.012c-0.285,0.184-0.475,0.658-0.294,1.207c0.236,0.704,0.954,1.333,1.698,1.913
							c3.234,2.505,6.548,5.482,8.894,10.272c0.926,1.883,1.665,3.815,2.378,5.685c0.266,0.693,0.527,1.376,0.799,2.066
							c2.16,5.441,4.519,9.614,7.202,12.744c2.486,2.904,5.275,4.95,8.086,6.612C275.441,198.462,275.49,198.882,275.539,199.296z"
							/>
					</g>
					<g>
						<path style="fill:#4367C7;" d="M273.342,185.691c-3.382-3.537-6.1-8.106-8.383-12.118l-0.842-1.49
							c-3.11-5.487-6.321-11.155-10.634-15.387c-3.059-3.004-6.688-4.728-9.03-4.295c-2.256,0.419-4.243,1.896-6.061,4.521
							c-0.353,0.501-0.705,0.991-1.057,1.475c-1.006,1.388-1.961,2.694-2.765,4.322c-0.271,0.554-0.543,1.115-0.814,1.669
							c-0.958,1.971-1.946,4.011-3.051,5.873c-2.521,4.231-5.172,6.692-8.35,7.737c-0.793,0.262-1.627,0.436-2.48,0.54
							c0.007-0.463,0.019-0.923,0.026-1.386c0.63-0.094,1.24-0.241,1.83-0.434c3.056-1.004,5.62-3.394,8.07-7.509
							c1.094-1.839,2.078-3.864,3.03-5.82c0.271-0.56,0.543-1.12,0.814-1.675c0.83-1.677,1.795-3.007,2.821-4.412
							c0.348-0.481,0.7-0.965,1.047-1.463c1.901-2.741,3.989-4.286,6.382-4.731c2.592-0.481,6.58,1.4,9.923,4.681
							c4.541,4.452,7.837,10.275,11.028,15.903l0.842,1.483c2.132,3.755,4.452,7.665,7.322,10.88
							C273.128,184.602,273.243,185.148,273.342,185.691z"/>
					</g>
					<g>
						<path style="fill:#4367C7;" d="M271.023,175.548c-0.086-0.097-0.172-0.199-0.253-0.299c-2.294-2.757-4.332-5.878-6.31-8.894
							c-2.301-3.52-4.682-7.157-7.417-10.118c-4.847-5.256-10.842-8.143-15.273-7.362c-2.454,0.426-4.908,2.004-7.291,4.68
							c-1.918,2.141-3.408,4.958-4.851,7.68c-0.389,0.737-0.773,1.465-1.167,2.182c-2.026,3.678-4.296,7.43-7.848,9.285
							c-0.193,0.098-0.387,0.195-0.585,0.284c0.018-0.55,0.04-1.092,0.068-1.637c3.329-1.821,5.507-5.423,7.451-8.962
							c0.394-0.717,0.778-1.445,1.167-2.17c1.459-2.759,2.964-5.608,4.928-7.804c2.459-2.76,5.005-4.389,7.576-4.835
							c4.711-0.829,11.085,2.245,16.236,7.824c2.861,3.104,5.298,6.826,7.654,10.425c1.715,2.618,3.481,5.318,5.396,7.742
							C270.684,174.229,270.858,174.892,271.023,175.548z"/>
					</g>
					<g>
						<path style="fill:#4367C7;" d="M269.108,168.626c-1.3-1.266-2.558-2.636-3.756-4.087c-1.303-1.583-2.551-3.28-3.752-4.915
							c-1.192-1.623-2.424-3.294-3.692-4.833c-5.375-6.521-11.69-10.646-16.483-10.765c-5.554-0.137-8.875,4.691-11.398,9.423
							c-0.307,0.586-0.614,1.184-0.926,1.773c-2.268,4.384-4.617,8.92-8.678,10.822c0.043-0.577,0.091-1.15,0.144-1.715
							c3.421-2.036,5.55-6.139,7.613-10.129c0.312-0.595,0.619-1.187,0.932-1.776c2.595-4.877,6.033-9.853,11.877-9.705
							c5.082,0.124,11.751,4.468,17.41,11.329c1.309,1.586,2.56,3.292,3.772,4.938c1.181,1.606,2.408,3.273,3.671,4.809
							c0.869,1.056,1.779,2.071,2.709,3.034C268.742,167.426,268.927,168.03,269.108,168.626z"/>
					</g>
					<g>
						<path style="fill:#4367C7;" d="M231.808,145.328c-0.098,0.212-0.19,0.398-0.251,0.566c-0.703,1.763-1.714,3.206-2.695,4.597
							l-0.179,0.258c-1.966,2.808-4.388,4.989-7.207,6.505c0.104-0.623,0.219-1.233,0.338-1.841v-0.006
							c2.311-1.433,4.32-3.363,5.991-5.748l0.184-0.255c0.955-1.365,1.946-2.779,2.619-4.466c0.067-0.177,0.164-0.377,0.267-0.604
							c0.487-1.048,1.296-2.801,0.454-4.04c-0.853-1.256-2.488-0.014-3.104,0.451l-0.071,0.058c-0.642,0.49-1.274,1.05-1.886,1.686
							c0.778-1.38,1.636-2.661,2.59-3.805v-0.006c0.936-0.389,2.094-0.415,3.093,1.055
							C233.402,141.871,232.403,144.033,231.808,145.328z"/>
					</g>
					<g>
						<path style="fill:#4367C7;" d="M267.469,163.57c-2.725-2.827-5.358-5.892-7.94-8.898c-1.198-1.393-2.436-2.839-3.659-4.224
							c-1.314-1.496-2.724-3.06-4.227-4.321c-1.169-0.985-2.475-1.852-3.995-2.656c-2.498-1.316-4.856-2.083-7.008-2.275
							c-1.137-0.102-2.199-0.038-3.154,0.194c-0.27,0.059-0.519,0.159-0.768,0.253c-0.626,0.237-1.282,0.479-2.21,0.248
							c-0.208-0.051-0.492-0.152-0.78-0.432c-0.283-0.27-0.5-0.636-0.61-1.027c-0.19-0.689-0.005-1.288,0.21-1.589
							c2.043-2.88,6.743-2.331,10.459-0.859c5.546,2.205,11.016,7.83,15.166,12.492c1.097,1.229,2.203,2.511,3.269,3.74
							c0.945,1.094,1.9,2.194,2.865,3.283c0.357,0.81,0.699,1.622,1.021,2.435c-1.471-1.622-2.916-3.289-4.341-4.937
							c-1.061-1.226-2.163-2.493-3.249-3.717c-4.013-4.506-9.301-9.954-14.573-12.047c-3.488-1.385-7.872-1.926-9.737,0.702
							c-0.148,0.212-0.175,0.523-0.14,0.631c0-0.012,0.051,0.018,0.167,0.045c0.725,0.178,1.264-0.028,1.839-0.242
							c0.259-0.1,0.529-0.2,0.824-0.273c1.022-0.24,2.144-0.309,3.347-0.198c2.264,0.198,4.738,0.998,7.358,2.38
							c1.611,0.852,3.008,1.783,4.268,2.839c1.604,1.35,3.07,2.981,4.439,4.533c1.233,1.402,2.476,2.851,3.679,4.247
							c2.208,2.572,4.447,5.18,6.737,7.63C266.982,162.206,267.233,162.89,267.469,163.57z"/>
					</g>
					<g>
						<path style="fill:#FFFFFF;" d="M276.842,220.613v1.943c-1.166-2.596-2.631-5.122-4.345-7.4
							c-1.978-2.614-4.239-4.892-6.429-7.1l2.844,1.643c1.431,1.484,2.826,3.055,4.133,4.804
							C274.475,216.41,275.765,218.476,276.842,220.613z"/>
						<path style="fill:#4367C7;" d="M266.263,207.014c0.883,0.883,1.766,1.766,2.649,2.685l-2.844-1.643
							c-0.053-0.053-0.088-0.088-0.141-0.141c-1.166-1.166-2.367-2.367-3.532-3.621c-1.484-1.607-2.773-3.197-3.868-4.769
							c-2.173-3.038-3.621-6.005-4.257-8.76c-0.3-1.219-0.283-2.049,0.018-2.543c0.371-0.618,1.236-0.654,2.155-0.088
							c0.689,0.441,1.377,1.148,2.102,2.172c1.183,1.678,2.049,3.532,2.879,5.334c0.371,0.795,0.742,1.625,1.148,2.402
							c1.095,2.155,2.455,4.221,4.009,6.146c2.79,3.462,6.234,6.464,10.032,8.672c0.018,0.389,0.035,0.795,0.053,1.201
							c-4.61-2.684-8.795-6.535-11.974-10.968c-1.095-1.519-2.066-3.109-2.897-4.751c-0.424-0.83-0.812-1.678-1.201-2.49
							c-0.813-1.784-1.59-3.444-2.649-4.945c-0.548-0.777-1.077-1.324-1.554-1.625c-0.512-0.318-1.007-0.336-1.201-0.018
							c-0.176,0.283-0.159,0.848,0.035,1.713c0.812,3.462,2.95,6.853,5.157,9.626c0.813,1.06,1.643,2.014,2.42,2.861
							C263.931,204.682,265.115,205.866,266.263,207.014z"/>
					</g>
					<g>
						<path style="fill:#FFFFFF;" d="M276.586,229.361c-0.08,0.987-0.176,1.959-0.297,2.905c-0.745-3.974-1.93-8.304-4.361-12.221
							c-1.579-2.544-3.509-4.645-5.551-6.864c-1.259-1.37-2.563-2.791-3.77-4.312c-0.808-1.026-1.581-2.107-2.322-3.147
							c-0.742-1.034-1.514-2.115-2.297-3.103c-1.773-2.231-3.68-3.938-5.398-4.811c-1.257-0.645-2.594-0.128-3.967,1.531
							c-0.48,0.579-0.909,1.257-1.328,1.907c-0.486,0.768-0.991,1.554-1.588,2.222c-2.352,2.63-5.949,3.179-9.43,3.714
							c-3.252,0.493-6.615,1.009-8.869,3.24c-1.305,1.289-2.201,3.126-2.891,5.178c-0.262-0.497-0.519-1.003-0.76-1.512
							c0.693-1.897,1.584-3.592,2.839-4.829c2.366-2.347,5.811-2.868,9.139-3.381c3.394-0.516,6.9-1.053,9.135-3.553
							c0.566-0.633,1.057-1.405,1.532-2.15c0.429-0.667,0.869-1.357,1.374-1.962c1.557-1.885,3.158-2.423,4.759-1.606
							c1.91,0.979,4.03,2.863,5.969,5.302c0.823,1.041,1.606,2.139,2.368,3.203c0.727,1.02,1.484,2.074,2.257,3.05
							c1.152,1.46,2.425,2.845,3.659,4.183c2.027,2.204,4.12,4.481,5.819,7.218C274.577,222.741,275.777,226.109,276.586,229.361z"
							/>
					</g>
					<g>
						<path style="fill:#FFFFFF;" d="M269.15,218.934c-1.237-1.615-2.597-3.05-3.911-4.435c-1.158-1.224-2.351-2.486-3.432-3.846
							c-0.727-0.909-1.434-1.905-2.116-2.863c-1.111-1.564-2.262-3.187-3.576-4.573c-2.234-2.36-5.244-3.927-6.667-2.351
							c-0.582,0.648-0.774,1.675-0.961,2.664c-0.052,0.268-0.099,0.538-0.16,0.788c-0.823,3.679-3.463,6.047-7.859,7.036
							c-1.459,0.324-3.018,0.507-4.522,0.682c-2.276,0.268-4.633,0.541-6.729,1.328c-1.958,0.728-3.242,1.766-3.461,4.407
							c0.318,0.524,0.646,1.036,0.984,1.543c-0.039-2.92,1.123-3.936,3.122-4.681c2.039-0.762,4.361-1.032,6.607-1.294
							c1.519-0.178,3.089-0.36,4.578-0.696c4.61-1.033,7.393-3.552,8.273-7.49c0.057-0.271,0.109-0.55,0.161-0.823
							c0.177-0.931,0.338-1.807,0.802-2.319c1.107-1.23,3.63,0.142,5.445,2.059c1.203,1.274,2.258,2.753,3.374,4.326
							c0.702,0.987,1.429,2.007,2.191,2.965c1.142,1.431,2.37,2.731,3.563,3.993c1.274,1.344,2.588,2.736,3.755,4.257
							c3.262,4.25,5.646,9.862,6.712,15.799c0.069,0.397,0.139,0.8,0.198,1.196c0.181-0.776,0.342-1.576,0.487-2.397
							C274.772,228.496,272.357,223.111,269.15,218.934z"/>
					</g>
					<g>
						<path style="fill:#FFFFFF;" d="M260.682,228.208c-0.191-1.758-0.285-3.495-0.374-5.177c-0.235-4.424-0.485-9.003-2.494-14.222
							c-0.608-1.575-1.288-2.836-2.086-3.856c-1.035-1.328-2.235-2.167-3.22-2.257c-1.898-0.166-2.28,2.304-2.337,3.795
							c-0.229,6.169,1.605,13.172,3.379,19.948c1.229,4.688,2.499,9.54,3.049,14.02c0.157,1.289,0.263,2.554,0.309,3.784
							c0.335,0.125,0.674,0.247,1.009,0.355c-0.056-1.224-0.157-2.469-0.314-3.74c-0.57-4.602-1.854-9.509-3.098-14.259
							c-1.744-6.653-3.543-13.525-3.32-19.476c0.04-0.982,0.283-3.246,1.719-3.121c0.675,0.061,1.551,0.688,2.298,1.644
							c0.641,0.824,1.211,1.886,1.733,3.236c1.894,4.918,2.12,9.156,2.365,13.644c0.089,1.699,0.184,3.454,0.374,5.253
							c0.625,5.849,2.336,12.015,4.179,18.089c0.31,0.035,0.619,0.057,0.924,0.071C262.963,239.958,261.288,233.9,260.682,228.208z"
							/>
					</g>
					<g>
						<path style="fill:#FFFFFF;" d="M253.827,211.292c0.209-0.228,0.494-0.308,0.823-0.116c0.258,0.151,0.556,0.482,0.808,0.91
							c0.449,0.752,0.704,1.608,0.949,2.656c0.738,3.141,1.106,6.234,1.459,9.232c0.206,1.709,0.417,3.479,0.694,5.246
							c0.865,5.528,2.435,11.367,3.871,16.473c0.32,0.052,0.639,0.092,0.949,0.127c-1.426-5.054-2.981-10.826-3.826-16.254
							c-0.272-1.736-0.483-3.494-0.684-5.188c-0.363-3.039-0.736-6.188-1.494-9.422c-0.254-1.089-0.575-2.233-1.22-3.31
							c-0.444-0.749-0.974-1.327-1.501-1.634c-1.276-0.744-2.129,0.272-2.211,1.684c-0.273,4.624,1.385,9.995,2.988,15.188
							c0.431,1.396,0.877,2.842,1.267,4.22c1.551,5.478,2.527,10.059,2.973,14.016c0.33,0.093,0.659,0.174,0.984,0.246
							c-0.598-5.173-1.932-10.325-3.012-14.139c-0.395-1.404-0.846-2.859-1.282-4.269c-1.553-5.035-3.166-10.251-2.909-14.604
							C253.479,211.919,253.618,211.527,253.827,211.292z"/>
					</g>
					<g>
						<path style="fill:#FFFFFF;" d="M274.834,238.964c0,0,0,0,0,0.006c-0.201,0.59-0.421,1.156-0.667,1.69
							c-0.617-4.349-1.731-8.573-3.324-12.603c-0.146-0.365-0.292-0.748-0.442-1.134c-1.07-2.761-2.28-5.891-4.201-7.911
							c-1.239-1.306-2.188-1.456-2.762-1.341c-1.021,0.187-1.686,1.336-1.693,2.915c-0.017,2.776,0.401,6.016,1.254,9.65
							c1.137,4.868,2.898,9.902,4.604,14.775c0.095,0.266,0.186,0.529,0.281,0.801c-0.284,0.044-0.574,0.08-0.868,0.101
							c-0.111-0.304-0.211-0.602-0.316-0.897c-1.726-4.925-3.507-10.017-4.669-14.988c-0.883-3.768-1.316-7.139-1.298-10.032
							c0.008-1.993,0.832-3.376,2.143-3.622c1.108-0.207,2.425,0.427,3.71,1.777c2.24,2.363,3.546,5.729,4.696,8.701
							c0.146,0.377,0.291,0.754,0.437,1.119C273.119,231.51,274.16,235.189,274.834,238.964z"/>
					</g>
					<g>
						<path style="fill:#FFFFFF;" d="M265.256,230.951c0.274,2.484,1.08,5.11,1.828,7.35c0.782,2.337,1.661,4.689,2.626,7.021
							c-0.259,0.1-0.524,0.191-0.793,0.267c-1.016-2.432-1.935-4.883-2.747-7.313c-0.737-2.205-1.624-5.076-1.917-7.747
							c-0.068-0.647-0.628-6.318,1.463-6.203c1.751,0.104,3.435,3.13,4.428,5.928c1.475,4.154,2.499,8.302,3.036,12.26
							c-0.256,0.388-0.531,0.736-0.822,1.045c-0.454-4.26-1.507-8.764-3.113-13.292c-0.166-0.464-1.657-4.552-3.109-4.633
							C265.121,225.574,265.012,228.705,265.256,230.951z"/>
					</g>
					<g>
						<path style="fill:#FFFFFF;" d="M250.557,219.812c-0.984-2.787-2.215-4.626-3.573-5.324c-1.15-0.589-2.01-0.144-2.525,0.333
							c-0.408,0.376-0.73,0.848-1.036,1.312c-0.342,0.507-0.664,0.991-1.087,1.329c-1.121,0.912-2.781,0.739-4.537,0.556
							c-1.309-0.138-2.654-0.274-3.808,0.046c-2.217,0.629-3.486,3.113-3.393,6.339c0.344,0.411,0.697,0.81,1.051,1.203
							c-0.296-3.169,0.841-5.66,2.946-6.255c1.052-0.292,2.342-0.159,3.585-0.03c1.797,0.189,3.654,0.384,4.938-0.661
							c0.479-0.387,0.837-0.926,1.189-1.444c0.307-0.452,0.593-0.887,0.955-1.219c0.316-0.295,0.973-0.724,1.778-0.306
							c1.165,0.597,2.066,2.577,2.613,4.134c2.9,8.232,3.242,16.247,1.062,21.5c0.365,0.207,0.724,0.405,1.089,0.6
							C253.925,236.424,253.523,228.223,250.557,219.812z"/>
					</g>
					<g>
						<path style="fill:#FFFFFF;" d="M249.535,233.555c-0.18,2.857-0.787,4.775-1.852,5.865c-0.01,0.011-0.021,0.017-0.031,0.029
							c-0.405-0.26-0.815-0.539-1.22-0.816c0.153-0.11,0.295-0.231,0.428-0.37c0.954-0.974,1.494-2.733,1.663-5.374
							c0.125-1.919,0.047-3.851-0.23-5.735c-0.108-0.729-0.555-3.174-1.836-4.067c-0.714-0.504-1.38-0.244-1.716-0.048
							c-0.229,0.141-0.438,0.323-0.662,0.507c-0.29,0.251-0.596,0.505-0.962,0.677c-1.038,0.487-2.357,0.203-3.635-0.069
							c-0.994-0.212-1.938-0.411-2.746-0.275c-1.682,0.287-2.579,2.264-2.244,4.725c-0.359-0.355-0.713-0.713-1.067-1.083
							c-0.146-2.603,0.913-4.619,2.758-4.94c0.925-0.156,1.975,0.065,2.995,0.286c1.228,0.26,2.385,0.508,3.26,0.095
							c0.31-0.14,0.575-0.371,0.861-0.608c0.224-0.191,0.459-0.387,0.723-0.548c0.794-0.478,1.693-0.415,2.543,0.18
							c1.337,0.931,2.354,2.996,2.724,5.525C249.582,229.506,249.665,231.54,249.535,233.555z"/>
					</g>
					<g>
						<path style="fill:#FFFFFF;" d="M243.283,235.085c-0.341,0.169-0.697,0.312-1.068,0.423c-0.461-0.368-0.921-0.741-1.376-1.118
							c0.625-0.097,1.21-0.288,1.749-0.557c0.845-0.43,1.838-1.282,1.739-2.911c-0.024-0.347-0.154-0.773-0.326-1.037
							c-0.086-0.132-0.146-0.173-0.192-0.194c-0.162-0.071-0.356,0.05-0.544,0.162l-0.046,0.032
							c-1.013,0.619-2.349,0.728-3.759,0.309l-0.157-0.051c-0.259-0.081-0.502-0.152-0.68-0.128
							c-0.183,0.033-0.341,0.204-0.479,0.492c-0.169,0.368-0.252,0.822-0.249,1.332c-0.334-0.3-0.668-0.605-0.997-0.914
							c0.028-0.533,0.131-1.016,0.316-1.411c0.215-0.47,0.496-0.727,0.856-0.791c0.325-0.061,0.685,0.049,1.005,0.153l0.147,0.039
							c1.227,0.371,2.391,0.272,3.266-0.269l0.046-0.026c0.285-0.173,0.641-0.391,1.174-0.151c0.34,0.157,0.668,0.471,0.946,0.896
							c0.378,0.588,0.639,1.377,0.682,2.056C245.434,233.086,244.728,234.35,243.283,235.085z"/>
					</g>
				</g>
				<polygon style="fill:#4367C7;" points="289.752,221.721 208.878,175.028 208.878,170.86 289.752,217.553 				"/>
				<path style="fill:#4D4D4D;" d="M297.616,118.747v1.371l-95.331,32.935V88.936l40.186-13.878l46.294,26.659
					c2.087,1.203,4.128,3.397,5.743,6.2C296.489,111.344,297.616,115.289,297.616,118.747z"/>
				<path style="fill:#4D4D4D;" d="M297.616,225.381v64.118l-31.091,10.739l-55.389-31.898c-2.087-1.203-4.113-3.397-5.728-6.185
					c-0.777-1.356-1.432-2.788-1.935-4.235L297.616,225.381z"/>
			</g>
		</g>
		<g>
			<path style="fill:#A8A8A8;" d="M303.295,110.322v45.364l-27.916-16.118c-2.204-1.272-3.991-4.69-3.991-7.632V78.153
				l21.575,12.429C298.663,93.874,303.295,102.71,303.295,110.322z"/>
			<g>
				<g>
					<g>
						<path style="fill:#7395F0;" d="M361.586,105.222l-90.113-52.027c-0.981-0.566-1.878-0.611-2.574-0.23l-0.001-0.002
							l-2.696,1.542l-0.078,0.363l1.394,0.66c-0.024,0.22-0.04,0.447-0.04,0.689v61.936c0,2.943,1.789,6.361,3.996,7.635
							l90.113,52.027c0.135,0.078,0.268,0.145,0.4,0.204l-0.585,0.257l0.1,1.286l2.622-1.494l-0.001,0
							c0.891-0.463,1.46-1.616,1.46-3.274v-61.936C365.582,109.914,363.793,106.496,361.586,105.222z"/>
						<path style="fill:#4367C7;" d="M358.9,179.346l-90.113-52.027c-2.207-1.274-3.996-4.693-3.996-7.635V57.748
							c0-2.942,1.789-4.295,3.996-3.021l90.113,52.027c2.207,1.274,3.996,4.693,3.996,7.636v61.936
							C362.896,179.268,361.107,180.621,358.9,179.346z"/>
						<g>
							<g>
								<path style="fill:#FCAA2D;" d="M286.509,99.562l-12.327-7.117c-0.879-0.507-1.591-1.868-1.591-3.039v-8.138
									c0-1.171,0.712-1.71,1.591-1.203l12.327,7.117c0.878,0.507,1.591,1.868,1.591,3.039v8.138
									C288.1,99.531,287.388,100.069,286.509,99.562z"/>
								<g>
									<g>
										<path d="M283.917,88.729c0.003,0.002,0.003,0.002,0.006,0.003c0.003-0.002,0.003-0.002,0.009,0.002l4.17,2.408V90.81
											l-4.199-2.424c-0.003,0.002-0.003-0.002-0.003-0.002c-0.003,0.002-0.003,0.002-0.006-0.003
											c-0.003,0.002-0.003-0.002-0.003-0.002c-0.182-0.095-0.341-0.11-0.474-0.065l-0.003-0.002
											c-0.092,0.036-0.171,0.101-0.223,0.193c-0.055,0.094-0.087,0.222-0.087,0.371v5.057c0,0.169,0.038,0.35,0.107,0.529
											c0.052,0.136,0.121,0.272,0.205,0.4c0.142,0.211,0.324,0.392,0.517,0.504l4.167,2.406v-0.332l-4.17-2.407
											c-0.298-0.175-0.538-0.589-0.538-0.934v-5.057C283.394,88.709,283.628,88.569,283.917,88.729z"/>
									</g>
									<g>
										<path d="M277.181,84.992c-0.046-0.123-0.107-0.244-0.179-0.359c-0.124-0.194-0.28-0.368-0.451-0.486l-0.014-0.008
											c-0.023-0.017-0.052-0.037-0.078-0.052l-3.867-2.232v0.332l3.867,2.232c0.297,0.172,0.54,0.59,0.54,0.932v5.057
											c0,0.345-0.243,0.483-0.54,0.312l-3.867-2.232v0.332l3.867,2.232c0.026,0.015,0.052,0.03,0.078,0.042
											c0.176,0.082,0.335,0.094,0.462,0.041c0.058-0.026,0.11-0.063,0.153-0.114c0.087-0.099,0.136-0.25,0.136-0.446v-5.057
											C277.287,85.349,277.25,85.172,277.181,84.992z"/>
									</g>
									<g>
										<path d="M283.937,95.37l-0.003-0.002c-0.584-0.324-1.058-0.047-1.058,0.623v1.472l-0.289-0.167v-1.472
											c0-0.643,0.344-0.999,0.829-0.96c0.159,0.016,0.332,0.069,0.514,0.171L283.937,95.37z"/>
									</g>
									<g>
										<path d="M277.883,93.108v1.472l-0.289-0.167v-1.472c0-0.67-0.474-1.497-1.058-1.844v-0.003l0.003-0.327
											c0.162,0.097,0.318,0.223,0.46,0.368c0.107,0.105,0.205,0.221,0.295,0.343c0.023,0.036,0.049,0.075,0.075,0.113
											C277.681,92.056,277.883,92.614,277.883,93.108z"/>
									</g>
									<g>
										<path d="M277.883,82.201v1.479c0,0.667-0.367,1.028-0.881,0.954c-0.145-0.017-0.301-0.071-0.463-0.161l-0.003-0.333
											l0.014,0.008c0.578,0.314,1.043,0.032,1.043-0.635v-1.479L277.883,82.201z"/>
									</g>
									<g>
										<path d="M283.937,88.409l-0.006,0.325v0.003l-0.009-0.005c-0.003-0.002-0.003-0.002-0.006-0.003
											c-0.176-0.108-0.347-0.25-0.5-0.415l-0.003-0.002c-0.486-0.526-0.826-1.276-0.826-1.916v-1.479l0.289,0.167v1.479
											c0,0.653,0.451,1.454,1.014,1.816c0,0,0,0.003,0.003,0.002c0.003,0.005,0.003,0.005,0.006,0.003c0,0,0,0.003,0.003,0.002
											C283.914,88.396,283.925,88.402,283.937,88.409z"/>
									</g>
									<g>
										<path d="M283.191,88.506c-0.058-0.272-0.249-0.558-0.477-0.69l-5.069-2.926c-0.214-0.124-0.396-0.073-0.465,0.103
											c-0.02,0.051-0.032,0.111-0.032,0.181v5.816c0,0.01,0,0.02,0.003,0.032c0.006,0.149,0.058,0.312,0.142,0.456
											c0.023,0.036,0.049,0.075,0.075,0.113c0.078,0.105,0.173,0.196,0.277,0.256l5.069,2.926
											c0.275,0.158,0.497,0.032,0.497-0.283v-5.816C283.212,88.62,283.206,88.564,283.191,88.506z M282.923,94.323
											c0,0.133-0.092,0.185-0.208,0.119l-5.069-2.927c-0.116-0.067-0.208-0.226-0.208-0.359V85.34
											c0-0.133,0.092-0.185,0.208-0.119l5.069,2.926c0.116,0.067,0.208,0.226,0.208,0.359V94.323z"/>
									</g>
								</g>
							</g>
							<polygon style="fill:#856B37;" points="288.101,91.102 288.101,96.103 282.293,97.126 275.655,93.294 							"/>
							<path style="fill:#856B37;" d="M287.39,87.995l-14.637,2.589c-0.03-0.076-0.052-0.148-0.066-0.225
								c-0.022-0.072-0.037-0.148-0.052-0.224c-0.015-0.051-0.022-0.106-0.029-0.161c-0.007-0.089-0.015-0.178-0.015-0.271v-5.689
								l6.463-1.136l7.459,4.306C286.837,87.371,287.139,87.655,287.39,87.995z"/>
						</g>
						<path style="fill:#FFFFFF;" d="M357.67,173.54l-22.255-12.849c-0.815-0.47-1.475-1.733-1.475-2.819v-10.245
							c0-1.087,0.661-1.586,1.475-1.116l22.255,12.849c0.815,0.47,1.476,1.732,1.476,2.819v10.245
							C359.146,173.511,358.485,174.01,357.67,173.54z"/>
						<path style="fill:#FCAA2D;" d="M354.88,170.359l-16.675-9.627c-0.815-0.471-1.475-1.733-1.475-2.819v-7.106
							c0-1.087,0.661-1.586,1.475-1.115l16.675,9.627c0.815,0.47,1.476,1.733,1.476,2.819v7.106
							C356.355,170.33,355.695,170.83,354.88,170.359z"/>
						<g>
							<path style="fill:#FFFFFF;" d="M275.78,103.703l-2.428-1.402c-0.34-0.196-0.615-0.722-0.615-1.174v-4.251
								c0-0.453,0.275-0.661,0.615-0.465l2.428,1.402c0.34,0.196,0.615,0.722,0.615,1.175v4.251
								C276.395,103.691,276.12,103.899,275.78,103.703z"/>
							<path style="fill:#FFFFFF;" d="M279.991,106.135l-2.428-1.402c-0.34-0.196-0.615-0.722-0.615-1.174v-4.251
								c0-0.453,0.275-0.661,0.615-0.465l2.428,1.402c0.34,0.196,0.615,0.722,0.615,1.175v4.251
								C280.606,106.123,280.331,106.331,279.991,106.135z"/>
							<path style="fill:#FFFFFF;" d="M284.203,108.566l-2.428-1.402c-0.34-0.196-0.615-0.722-0.615-1.174v-4.251
								c0-0.453,0.275-0.661,0.615-0.465l2.428,1.402c0.339,0.196,0.615,0.722,0.615,1.175v4.251
								C284.818,108.554,284.542,108.762,284.203,108.566z"/>
							<path style="fill:#FFFFFF;" d="M288.414,110.998l-2.428-1.402c-0.34-0.196-0.615-0.722-0.615-1.175v-4.251
								c0-0.453,0.275-0.661,0.615-0.465l2.428,1.402c0.34,0.196,0.615,0.722,0.615,1.175v4.251
								C289.029,110.986,288.754,111.194,288.414,110.998z"/>
						</g>
						<g>
							<path style="fill:#FFFFFF;" d="M296.499,115.665l-2.428-1.402c-0.34-0.196-0.615-0.722-0.615-1.175v-4.251
								c0-0.453,0.275-0.661,0.615-0.465l2.428,1.402c0.34,0.196,0.615,0.722,0.615,1.175v4.251
								C297.113,115.653,296.838,115.861,296.499,115.665z"/>
							<path style="fill:#FFFFFF;" d="M300.71,118.096l-2.428-1.402c-0.34-0.196-0.615-0.722-0.615-1.175v-4.251
								c0-0.453,0.275-0.661,0.615-0.465l2.428,1.402c0.34,0.196,0.615,0.722,0.615,1.175v4.251
								C301.325,118.084,301.049,118.293,300.71,118.096z"/>
							<path style="fill:#FFFFFF;" d="M304.921,120.528l-2.428-1.402c-0.34-0.196-0.615-0.722-0.615-1.175V113.7
								c0-0.453,0.275-0.661,0.615-0.465l2.428,1.402c0.34,0.196,0.615,0.722,0.615,1.175v4.251
								C305.536,120.516,305.261,120.724,304.921,120.528z"/>
							<path style="fill:#FFFFFF;" d="M309.133,122.959l-2.428-1.402c-0.34-0.196-0.615-0.722-0.615-1.175v-4.251
								c0-0.453,0.275-0.661,0.615-0.465l2.428,1.402c0.34,0.196,0.615,0.722,0.615,1.175v4.251
								C309.747,122.947,309.472,123.155,309.133,122.959z"/>
						</g>
						<g>
							<path style="fill:#FFFFFF;" d="M317.217,127.627l-2.428-1.402c-0.34-0.196-0.615-0.722-0.615-1.175v-4.251
								c0-0.453,0.275-0.661,0.615-0.465l2.428,1.402c0.339,0.196,0.615,0.722,0.615,1.175v4.251
								C317.832,127.615,317.556,127.823,317.217,127.627z"/>
							<path style="fill:#FFFFFF;" d="M321.428,130.058L319,128.656c-0.339-0.196-0.615-0.722-0.615-1.175v-4.251
								c0-0.453,0.275-0.661,0.615-0.465l2.428,1.402c0.34,0.196,0.615,0.722,0.615,1.175v4.251
								C322.043,130.046,321.768,130.254,321.428,130.058z"/>
							<path style="fill:#FFFFFF;" d="M325.64,132.49l-2.428-1.402c-0.34-0.196-0.615-0.722-0.615-1.175v-4.251
								c0-0.453,0.275-0.661,0.615-0.465l2.428,1.402c0.339,0.196,0.615,0.722,0.615,1.175v4.251
								C326.254,132.477,325.979,132.686,325.64,132.49z"/>
							<path style="fill:#FFFFFF;" d="M329.851,134.921l-2.428-1.402c-0.339-0.196-0.615-0.722-0.615-1.175v-4.251
								c0-0.453,0.275-0.661,0.615-0.465l2.428,1.402c0.34,0.196,0.615,0.722,0.615,1.175v4.251
								C330.466,134.909,330.19,135.117,329.851,134.921z"/>
						</g>
						<g>
							<path style="fill:#FFFFFF;" d="M337.935,139.589l-2.428-1.402c-0.34-0.196-0.615-0.722-0.615-1.175v-4.251
								c0-0.453,0.275-0.661,0.615-0.465l2.428,1.402c0.34,0.196,0.615,0.722,0.615,1.175v4.251
								C338.55,139.577,338.275,139.785,337.935,139.589z"/>
							<path style="fill:#FFFFFF;" d="M342.147,142.02l-2.428-1.402c-0.34-0.196-0.615-0.722-0.615-1.175v-4.251
								c0-0.453,0.275-0.661,0.615-0.465l2.428,1.402c0.34,0.196,0.615,0.722,0.615,1.175v4.251
								C342.762,142.008,342.486,142.216,342.147,142.02z"/>
							<path style="fill:#FFFFFF;" d="M346.358,144.452l-2.428-1.402c-0.34-0.196-0.615-0.722-0.615-1.175v-4.251
								c0-0.453,0.275-0.661,0.615-0.465l2.428,1.402c0.34,0.196,0.615,0.722,0.615,1.175v4.251
								C346.973,144.439,346.698,144.648,346.358,144.452z"/>
							<path style="fill:#FFFFFF;" d="M350.569,146.883l-2.428-1.402c-0.34-0.196-0.615-0.722-0.615-1.175v-4.251
								c0-0.453,0.275-0.661,0.615-0.465l2.428,1.402c0.34,0.196,0.615,0.722,0.615,1.175v4.251
								C351.184,146.871,350.909,147.079,350.569,146.883z"/>
						</g>
						<g>
							<path style="fill:#FFFFFF;" d="M280.998,123.718l-8.069-4.659c-0.276-0.159-0.5-0.587-0.5-0.954v-1.666
								c0-0.368,0.224-0.537,0.5-0.378l8.069,4.659c0.276,0.159,0.5,0.587,0.5,0.954v1.666
								C281.498,123.708,281.274,123.877,280.998,123.718z"/>
							<path style="fill:#FFFFFF;" d="M294.585,131.562l-12.004-6.93c-0.276-0.159-0.499-0.587-0.499-0.954v-1.666
								c0-0.368,0.224-0.537,0.499-0.378l12.004,6.93c0.276,0.159,0.499,0.587,0.499,0.954v1.666
								C295.085,131.552,294.861,131.721,294.585,131.562z"/>
						</g>
						<g>
							<path style="fill:#FFFFFF;" d="M280.998,74.053l-8.069-4.659c-0.276-0.159-0.5-0.586-0.5-0.954v-4.417
								c0-0.368,0.224-0.537,0.5-0.378l8.069,4.659c0.276,0.159,0.5,0.587,0.5,0.954v4.418
								C281.498,74.043,281.274,74.212,280.998,74.053z"/>
							<path style="fill:#FFFFFF;" d="M294.585,81.897l-12.004-6.93c-0.276-0.159-0.499-0.586-0.499-0.954v-4.417
								c0-0.368,0.224-0.537,0.499-0.378l12.004,6.93c0.276,0.159,0.499,0.587,0.499,0.954v4.417
								C295.085,81.888,294.861,82.057,294.585,81.897z"/>
						</g>
						<g>
							<path style="fill:#FFFFFF;" d="M304.168,130.314l-5.118-2.955c-0.127-0.073-0.23-0.271-0.23-0.44v-1.105
								c0-0.17,0.103-0.248,0.23-0.174l5.118,2.955c0.127,0.074,0.23,0.271,0.23,0.44v1.105
								C304.399,130.309,304.295,130.387,304.168,130.314z"/>
							<path style="fill:#FFFFFF;" d="M304.168,128.056l-5.118-2.955c-0.127-0.073-0.23-0.271-0.23-0.44v-1.105
								c0-0.17,0.103-0.248,0.23-0.174l5.118,2.955c0.127,0.074,0.23,0.271,0.23,0.441v1.105
								C304.399,128.052,304.295,128.13,304.168,128.056z"/>
						</g>
						<g>
							<path style="fill:#FFFFFF;" d="M309.671,133.605l-2.121-1.225c-0.136-0.079-0.246-0.289-0.246-0.47v-3.648
								c0-0.181,0.11-0.264,0.246-0.186l2.121,1.225c0.136,0.078,0.246,0.289,0.246,0.47v3.648
								C309.916,133.6,309.806,133.684,309.671,133.605z"/>
							<path style="fill:#FFFFFF;" d="M312.668,135.335l-2.121-1.225c-0.136-0.078-0.246-0.289-0.246-0.47v-3.647
								c0-0.181,0.11-0.264,0.246-0.186l2.121,1.224c0.136,0.078,0.246,0.289,0.246,0.47v3.647
								C312.913,135.331,312.803,135.414,312.668,135.335z"/>
						</g>
						<g>
							<path style="fill:#FFFFFF;" d="M318.5,138.703l-2.121-1.225c-0.136-0.078-0.246-0.289-0.246-0.47v-3.648
								c0-0.181,0.11-0.264,0.246-0.186l2.121,1.224c0.136,0.078,0.246,0.289,0.246,0.47v3.647
								C318.746,138.698,318.636,138.781,318.5,138.703z"/>
							<path style="fill:#FFFFFF;" d="M321.497,140.433l-2.121-1.225c-0.136-0.078-0.246-0.289-0.246-0.47v-3.648
								c0-0.181,0.11-0.264,0.246-0.186l2.121,1.225c0.136,0.079,0.246,0.289,0.246,0.47v3.648
								C321.743,140.428,321.633,140.512,321.497,140.433z"/>
						</g>
						<path style="fill:#FFFFFF;" d="M313.605,135.668L313.605,135.668c-0.117-0.146-0.158-0.342-0.09-0.438l1.629-2.297
							c0.068-0.096,0.219-0.055,0.336,0.09l0,0c0.118,0.146,0.158,0.342,0.09,0.438l-1.629,2.297
							C313.873,135.854,313.723,135.814,313.605,135.668z"/>
					</g>
					<path style="fill:#303030;" d="M360.331,107.941l-92.335,18.826c-1.823-1.55-3.203-4.498-3.203-7.079V96.986l57.042-11.628
						l37.065,21.399C359.41,107.046,359.896,107.455,360.331,107.941z"/>
					<polygon style="fill:#303030;" points="362.895,123.82 362.895,154.24 327.814,161.396 288.867,138.915 					"/>
				</g>
				<g>
					<g>
						<g style="enable-background:new    ;">
							<g>
								<path style="fill:#F2F2F2;" d="M330.41,84.552l3.929-2.283c3.505-2.037,8.358-1.75,13.713,1.342l-3.929,2.283
									C338.768,82.802,333.915,82.515,330.41,84.552z"/>
							</g>
							<g>
								<path style="fill:#F2F2F2;" d="M361.64,129.245l-3.929,2.283c3.46-2.011,5.606-6.285,5.623-12.361
									c0.035-12.229-8.569-27.13-19.211-33.274l3.929-2.283c10.642,6.144,19.246,21.045,19.211,33.274
									C367.246,122.96,365.1,127.235,361.64,129.245z"/>
							</g>
							<g>
								<path style="fill:#E6E6E6;" d="M344.123,85.894c10.642,6.144,19.245,21.046,19.211,33.274
									c-0.035,12.229-8.694,17.164-19.336,11.019c-10.642-6.144-19.245-21.046-19.211-33.275
									C324.822,84.684,333.481,79.749,344.123,85.894z"/>
							</g>
							<g>
								<path style="fill:#6FBC3C;" d="M338.611,118.88l-2.835-4.89c-0.636-1.097-0.636-2.28,0-2.643l18.017-10.273
									c0.636-0.362,1.667,0.233,2.303,1.33l2.835,4.891c0.636,1.097,0.636,2.28,0,2.643l-18.017,10.272
									C340.279,120.572,339.247,119.977,338.611,118.88z"/>
								<path style="fill:#6FBC3C;" d="M343.741,118.588l-2.835,1.617c-0.636,0.362-1.667-0.233-2.303-1.33l-9.413-16.236
									c-0.636-1.097-0.636-2.28,0-2.643l2.835-1.617c0.636-0.363,1.667,0.233,2.303,1.33l9.413,16.236
									C344.377,117.042,344.377,118.225,343.741,118.588z"/>
							</g>
						</g>
					</g>
				</g>
			</g>
		</g>
		<g>
			<path style="fill:#A8A8A8;" d="M303.295,167.357v22.983l-14.205-8.205c-1.534-0.884-2.787-3.262-2.787-5.311V161.25
				c0-2.049,1.253-2.991,2.787-2.097L303.295,167.357z"/>
			<g>
				<path style="fill:#7395F0;" d="M349.09,186.048l-62.702-36.201c-0.683-0.394-1.307-0.425-1.791-0.16l-0.001-0.001l-1.876,1.073
					l-0.055,0.252l0.97,0.459c-0.016,0.153-0.028,0.311-0.028,0.479v15.576c0,2.048,1.245,4.426,2.78,5.313l62.702,36.201
					c0.094,0.054,0.186,0.101,0.278,0.142l-0.407,0.179l0.07,0.895l1.825-1.04l0,0c0.62-0.322,1.016-1.124,1.016-2.278V191.36
					C351.87,189.313,350.625,186.934,349.09,186.048z"/>
				<path style="fill:#4367C7;" d="M347.22,210.105l-62.702-36.201c-1.536-0.887-2.781-3.265-2.781-5.313v-15.576
					c0-2.047,1.245-2.989,2.781-2.102l62.702,36.201c1.536,0.887,2.78,3.265,2.78,5.313v15.576
					C350.001,210.05,348.756,210.991,347.22,210.105z"/>
				<path style="fill:#2C52B8;" d="M342.322,202.22l-52.905-30.713c-1.194-0.69-2.163-2.54-2.163-4.132v-6.941
					c0-1.592,0.968-2.325,2.163-1.635l52.905,30.713c1.194,0.69,2.163,2.54,2.163,4.132v6.941
					C344.485,202.178,343.517,202.909,342.322,202.22z"/>
				<g>
					<path style="fill:#FFFFFF;" d="M292.924,169.35l-0.658,0.017c-0.535,0.014-1.161-0.869-1.059-1.494l0.126-0.768
						c0.041-0.248-0.038-0.571-0.21-0.863l-0.532-0.903c-0.433-0.735-0.194-1.441,0.405-1.195l0.736,0.302
						c0.238,0.098,0.443,0.045,0.549-0.141l0.329-0.575c0.268-0.468,1.041-0.021,1.309,0.756l0.329,0.955
						c0.106,0.309,0.312,0.599,0.549,0.775l0.736,0.547c0.599,0.446,0.838,1.428,0.404,1.662l-0.532,0.288
						c-0.172,0.093-0.25,0.325-0.21,0.62l0.126,0.913c0.102,0.743-0.523,0.903-1.059,0.271l-0.658-0.777
						C293.391,169.491,293.137,169.344,292.924,169.35z"/>
					<path style="fill:#FFFFFF;" d="M299.499,173.145l-0.658,0.017c-0.535,0.014-1.161-0.869-1.059-1.494l0.126-0.768
						c0.041-0.248-0.038-0.571-0.21-0.862l-0.532-0.903c-0.433-0.735-0.194-1.441,0.404-1.195l0.736,0.302
						c0.238,0.098,0.443,0.045,0.549-0.141l0.329-0.575c0.268-0.468,1.041-0.021,1.309,0.756l0.329,0.955
						c0.106,0.309,0.312,0.598,0.549,0.775l0.736,0.547c0.599,0.445,0.838,1.428,0.405,1.662l-0.532,0.288
						c-0.172,0.093-0.25,0.325-0.21,0.62l0.126,0.913c0.102,0.743-0.523,0.904-1.059,0.271l-0.658-0.777
						C299.966,173.287,299.712,173.14,299.499,173.145z"/>
					<path style="fill:#FFFFFF;" d="M306.073,176.941l-0.658,0.017c-0.535,0.014-1.161-0.869-1.059-1.494l0.126-0.768
						c0.041-0.248-0.038-0.571-0.21-0.862l-0.532-0.903c-0.433-0.734-0.194-1.441,0.404-1.195l0.736,0.302
						c0.238,0.098,0.443,0.045,0.549-0.141l0.329-0.575c0.268-0.468,1.041-0.021,1.309,0.756l0.329,0.955
						c0.106,0.309,0.312,0.599,0.549,0.775l0.736,0.547c0.599,0.445,0.838,1.428,0.405,1.662l-0.532,0.288
						c-0.172,0.093-0.25,0.325-0.21,0.62l0.126,0.913c0.102,0.743-0.523,0.904-1.059,0.271l-0.658-0.777
						C306.54,177.083,306.286,176.936,306.073,176.941z"/>
					<path style="fill:#FFFFFF;" d="M312.648,180.737l-0.658,0.017c-0.535,0.014-1.161-0.869-1.059-1.494l0.126-0.768
						c0.041-0.248-0.038-0.571-0.21-0.862l-0.532-0.903c-0.433-0.734-0.194-1.441,0.404-1.195l0.736,0.302
						c0.238,0.098,0.443,0.045,0.549-0.141l0.329-0.575c0.268-0.468,1.041-0.021,1.309,0.756l0.329,0.955
						c0.106,0.309,0.312,0.598,0.549,0.775l0.736,0.548c0.599,0.445,0.838,1.428,0.405,1.662l-0.532,0.288
						c-0.172,0.093-0.251,0.325-0.21,0.62l0.126,0.913c0.102,0.743-0.523,0.904-1.059,0.271l-0.658-0.777
						C313.115,180.878,312.861,180.732,312.648,180.737z"/>
					<path style="fill:#FFFFFF;" d="M319.223,184.533l-0.658,0.017c-0.535,0.014-1.161-0.869-1.059-1.494l0.126-0.768
						c0.041-0.248-0.038-0.571-0.21-0.862l-0.532-0.903c-0.433-0.735-0.194-1.441,0.405-1.195l0.736,0.302
						c0.238,0.098,0.443,0.045,0.55-0.141l0.329-0.575c0.268-0.468,1.041-0.021,1.309,0.756l0.329,0.955
						c0.106,0.309,0.312,0.598,0.549,0.775l0.736,0.548c0.599,0.445,0.838,1.427,0.404,1.662l-0.532,0.288
						c-0.172,0.093-0.25,0.325-0.21,0.62l0.126,0.913c0.102,0.743-0.523,0.904-1.059,0.271l-0.658-0.777
						C319.689,184.674,319.435,184.527,319.223,184.533z"/>
					<path style="fill:#FFFFFF;" d="M325.797,188.329l-0.658,0.017c-0.535,0.014-1.161-0.869-1.059-1.494l0.126-0.768
						c0.041-0.248-0.038-0.571-0.21-0.863l-0.532-0.903c-0.433-0.735-0.194-1.441,0.404-1.195l0.736,0.302
						c0.238,0.098,0.443,0.045,0.549-0.141l0.329-0.575c0.268-0.468,1.041-0.021,1.309,0.756l0.329,0.955
						c0.106,0.309,0.312,0.598,0.549,0.775l0.736,0.547c0.599,0.445,0.838,1.428,0.404,1.662l-0.532,0.288
						c-0.172,0.093-0.251,0.325-0.21,0.62l0.126,0.913c0.102,0.743-0.523,0.904-1.059,0.271l-0.658-0.777
						C326.264,188.47,326.01,188.323,325.797,188.329z"/>
					<path style="fill:#FFFFFF;" d="M332.371,192.124l-0.658,0.017c-0.535,0.014-1.161-0.869-1.059-1.494l0.126-0.768
						c0.041-0.248-0.038-0.571-0.21-0.863l-0.532-0.903c-0.433-0.735-0.194-1.441,0.405-1.195l0.736,0.302
						c0.238,0.098,0.443,0.045,0.549-0.141l0.329-0.575c0.268-0.468,1.041-0.021,1.309,0.756l0.329,0.955
						c0.106,0.309,0.312,0.598,0.55,0.775l0.736,0.547c0.599,0.445,0.838,1.428,0.404,1.662l-0.532,0.288
						c-0.172,0.093-0.25,0.325-0.21,0.62l0.126,0.913c0.102,0.743-0.524,0.904-1.059,0.271l-0.658-0.777
						C332.838,192.266,332.584,192.119,332.371,192.124z"/>
					<path style="fill:#FFFFFF;" d="M338.946,195.92l-0.658,0.017c-0.535,0.014-1.161-0.869-1.059-1.494l0.126-0.768
						c0.041-0.248-0.038-0.571-0.21-0.862l-0.532-0.903c-0.433-0.735-0.194-1.441,0.405-1.195l0.736,0.302
						c0.238,0.098,0.443,0.045,0.549-0.141l0.329-0.575c0.268-0.468,1.041-0.021,1.309,0.756l0.329,0.955
						c0.106,0.309,0.312,0.598,0.549,0.775l0.736,0.547c0.599,0.445,0.838,1.428,0.404,1.662l-0.532,0.288
						c-0.172,0.093-0.251,0.325-0.21,0.62l0.126,0.913c0.102,0.743-0.523,0.904-1.059,0.271l-0.658-0.777
						C339.413,196.061,339.159,195.915,338.946,195.92z"/>
				</g>
				<path style="fill:#7395F0;" d="M343.72,201.595l-52.905-30.713c-1.194-0.69-2.163-2.54-2.163-4.132v-6.941
					c0-0.498,0.103-0.9,0.27-1.213c-0.955-0.252-1.668,0.473-1.668,1.838v6.941c0,1.593,0.968,3.443,2.163,4.132l52.905,30.713
					c0.821,0.474,1.526,0.264,1.893-0.422C344.055,201.755,343.891,201.693,343.72,201.595z"/>
			</g>
		</g>
		<g>
			<path style="fill:#A8A8A8;" d="M222.65,100.71L222.65,100.71l-4.263-9.173l-1.951,3.994L187.476,78.81
				c-1.734-1.001-3.148-0.196-3.154,1.803l-0.081,28.46c-0.006,1.999,1.399,4.431,3.133,5.433l32.577,18.809
				c1.734,1.001,3.148,0.196,3.154-1.803l0.081-28.46C223.188,102.299,222.99,101.485,222.65,100.71z"/>
			<g>
				<g>
					<g style="enable-background:new    ;">
						<g>
							<path style="fill:#FFF642;" d="M170.109,73.083l10.334-6.005c0.572-0.332,1.363-0.286,2.235,0.218l-10.334,6.005
								C171.471,72.797,170.68,72.751,170.109,73.083z"/>
						</g>
						<g>
							<path style="fill:#FC912D;" d="M217.388,122.018l-10.334,6.005c0.565-0.328,0.916-1.027,0.919-2.021l10.334-6.005
								C218.304,120.99,217.953,121.689,217.388,122.018z"/>
						</g>
						<g>
							<polygon style="fill:#FC912D;" points="208.054,97.542 218.388,91.536 218.307,119.997 207.973,126.002 							"/>
						</g>
						<g>
							<polygon style="fill:#FFF642;" points="172.343,73.301 182.677,67.296 215.254,86.104 204.921,92.109 							"/>
						</g>
						<polygon style="fill:#FCAA2D;" points="194.574,74.164 179.133,74.164 179.133,68.601 184.936,68.601 						"/>
						<polygon style="fill:#FCAA2D;" points="215.255,86.103 209.421,89.49 205.686,89.49 205.686,83.926 211.482,83.926 						"/>
						<g>
							<path style="fill:#FFE042;" d="M204.921,92.109l10.334-6.005c1.734,1.001,3.139,3.434,3.133,5.433l-10.334,6.005
								C208.059,95.544,206.655,93.111,204.921,92.109z"/>
						</g>
						<g>
							<path style="fill:#FCAA2D;" d="M204.921,92.109c1.734,1.001,3.139,3.434,3.133,5.433l-0.081,28.46
								c-0.006,1.999-1.419,2.804-3.154,1.803l-32.577-18.808c-1.734-1.001-3.139-3.434-3.133-5.433l0.081-28.46
								c0.006-1.999,1.419-2.804,3.154-1.803L204.921,92.109z"/>
						</g>
						<g>
							<path style="fill:#FF6D40;" d="M182.417,95.326c0-3.211,2.322-4.459,5.144-2.707c2.642,1.64,4.786,5.469,4.758,8.486
								c-0.018,1.873-0.836,3.06-2.08,3.36v9.981c0,0.613-0.433,0.86-0.968,0.552l-3.805-2.197
								c-0.535-0.309-0.968-1.056-0.968-1.669v-9.981C183.24,99.394,182.417,97.234,182.417,95.326z"/>
							<path style="fill:#FFF642;" d="M184.957,91.836c-0.385,0.586-0.605,1.384-0.605,2.37c0,1.909,0.823,4.068,2.081,5.824v9.981
								c0,0.613,0.433,1.361,0.968,1.669l2.838,1.639v1.127c0,0.613-0.433,0.86-0.968,0.552l-3.805-2.197
								c-0.535-0.309-0.968-1.056-0.968-1.669v-9.981c-1.258-1.756-2.081-3.916-2.081-5.824
								C182.417,93.194,183.443,91.934,184.957,91.836z"/>
						</g>
					</g>
				</g>
				<g>
					<g style="enable-background:new    ;">
						<g>
							<polygon style="fill:#FFE042;" points="179.14,71.279 182.948,69.067 182.939,71.948 179.132,74.161 							"/>
						</g>
						<g>
							<path style="fill:#FC912D;" d="M182.618,63.644l3.807-2.213c-2.139,1.243-3.466,3.885-3.477,7.635l-3.807,2.213
								C179.151,67.529,180.478,64.887,182.618,63.644z"/>
						</g>
						<g>
							<polygon style="fill:#FC912D;" points="205.692,86.609 209.499,84.396 209.491,87.278 205.684,89.49 							"/>
						</g>
						<g>
							<path style="fill:#FFF642;" d="M180.677,60.315l3.807-2.213c2.665-1.549,6.353-1.334,10.414,1.011l-3.807,2.213
								C187.03,58.981,183.342,58.766,180.677,60.315z"/>
						</g>
						<g>
							<path style="fill:#FFE042;" d="M191.092,61.326l3.807-2.213c8.075,4.663,14.627,16.004,14.6,25.283l-3.807,2.213
								C205.718,77.329,199.167,65.988,191.092,61.326z"/>
						</g>
						<g>
							<path style="fill:#FCAA2D;" d="M191.092,61.326c8.075,4.662,14.627,16.004,14.6,25.283l-0.008,2.882l-2.739-1.582
								l0.008-2.882c0.021-7.547-5.302-16.767-11.87-20.559c-6.568-3.792-11.921-0.735-11.942,6.811l-0.008,2.882l-2.739-1.582
								l0.008-2.882C176.427,60.418,183.021,56.666,191.092,61.326z"/>
						</g>
					</g>
				</g>
			</g>
		</g>
		<g>
			<path style="fill:#A8A8A8;" d="M303.295,253.646v53.006c0,0.456-0.019,0.903-0.049,1.33l-4.195,1.758l-10.273-16.157
				c-6.69-10.525-10.525-22.401-10.525-32.567V245.49l20.798,4.088L303.295,253.646z"/>
			<g>
				<g>
					<path style="fill:#56AA39;" d="M301.125,237.169l-20.798-4.086l7.398,11.271c0,10.161,3.838,22.044,10.53,32.567l9.96,15.674
						l-7.542,4.354v1.46l5.231-2.19c0.382-0.161,0.757-0.335,1.119-0.523l0.891-0.516l4.625-2.691l0.898-0.516
						c1.701-1.052,3.175-2.458,4.387-4.173c2.659-3.744,4.099-8.949,4.099-15.171v-15.527L301.125,237.169z"/>
					<path style="fill:#6FBC3C;" d="M316.433,260.285l-20.799-19.934v0l0,0l0,0v0l-20.799-4.083v15.524
						c0,10.162,3.841,22.042,10.529,32.565l10.27,16.158v-0.001l10.269-4.298c6.688-2.799,10.529-10.244,10.529-20.406V260.285z"/>
					<path style="fill:#56AA39;" d="M312.977,261.972l-17.343-16.621v0l0,0l0,0v0l-17.343-3.404v12.945
						c0,8.473,3.203,18.38,8.78,27.153l8.564,13.473v-0.001l8.563-3.584c5.577-2.334,8.78-8.542,8.78-17.016V261.972z"/>
					<g>
						<path style="fill:#FFFFFF;" d="M294.827,279.688l-2.394-4.13c-0.537-0.926-0.537-1.926,0-2.232l15.215-8.675
							c0.537-0.306,1.408,0.197,1.945,1.123l2.394,4.13c0.537,0.926,0.537,1.926,0,2.232l-15.215,8.675
							C296.235,281.117,295.364,280.615,294.827,279.688z"/>
						<path style="fill:#FFFFFF;" d="M299.159,279.442l-2.394,1.365c-0.537,0.306-1.408-0.197-1.945-1.123l-7.949-13.71
							c-0.537-0.926-0.537-1.926,0-2.232l2.394-1.365c0.537-0.306,1.408,0.197,1.945,1.123l7.949,13.711
							C299.696,278.136,299.696,279.135,299.159,279.442z"/>
					</g>
					<path style="fill:#A0D859;" d="M289.161,281.26c-5.577-8.774-8.78-18.68-8.78-27.153v-11.75l-2.091-0.41v12.945
						c0,8.474,3.203,18.38,8.78,27.153l8.564,13.473v-0.001l2.044-0.856L289.161,281.26z"/>
				</g>
				<polygon style="fill:#ADE061;" points="274.834,236.268 295.633,240.351 301.126,237.168 280.327,233.083 				"/>
				<polygon style="fill:#A0D859;" points="316.433,260.285 321.926,257.103 301.126,237.168 295.633,240.351 				"/>
			</g>
		</g>
	</g>
	<g>
		
			<ellipse transform="matrix(0.0054 -1 1 0.0054 -164.9074 520.5695)" style="fill:#D9EDFF;" cx="179.247" cy="343.187" rx="22.019" ry="38.14"/>
		<g>
			<g>
				<path style="fill:#FFB78C;" d="M151.875,235.594c-0.086,1.719-0.172,3.437-0.258,5.156c-0.05,0.999-0.098,2.014,0.13,2.988
					c0.151,0.644,0.42,1.253,0.698,1.853c0.434,0.936,0.906,1.875,1.614,2.626c0.254,0.269,0.557,0.522,0.922,0.582
					c0.339,0.056,0.681-0.061,1.025-0.081c0.258-0.015,0.515,0.025,0.77,0.065c0.346,0.054,0.693,0.108,1.039,0.162
					c0.196,0.031,0.409,0.059,0.584-0.035c0.11-0.059,0.191-0.159,0.288-0.238c0.351-0.286,0.852-0.263,1.287-0.391
					c0.971-0.287,1.527-1.312,1.783-2.292c0.392-1.504,0.322-3.098,0.018-4.622c-0.303-1.524-0.833-2.992-1.362-4.454
					c-0.513-1.42-1.027-2.84-1.54-4.26c-0.872,1.064-2.256,1.871-3.592,1.544c-0.468-0.115-0.893-0.359-1.34-0.54
					c-0.447-0.181-0.951-0.297-1.409-0.144C151.54,233.845,151.913,234.835,151.875,235.594z"/>
				<path style="fill:#FF8A9D;" d="M158.127,231.376c-0.371-0.916-0.577-1.89-0.78-2.857c-0.585-2.775-2.602-12.955-3.188-15.215
					c0.66-6.516,1.8-12.982,2.522-19.456c0.133-1.188,0.255-2.377,0.368-3.566c0.375-3.966,0.639-7.943,0.791-11.923
					c0.072-1.888-0.127-3.95,0.182-5.809c0.077-0.466,0.309-4.949,0.804-4.903c-2.317-0.212-4.681,0.445-6.637,1.705
					c-2.012,1.297-3.527,3.034-4.479,5.227c-0.916,2.111-1.169,4.426-1.511,6.68c-0.721,4.749-1.259,23.39-1.301,27.95
					c-0.014,1.518-0.1,3.088,0.035,4.604c0.169,1.883,0.679,3.718,1.235,5.526c1.607,5.227,3.609,10.322,5.609,15.411
					c0.047,0.119,0.097,0.242,0.193,0.326c0.122,0.105,0.292,0.126,0.452,0.142c1.179,0.117,2.402,0.176,3.519-0.222
					c1.111-0.396,2.466-1.656,2.383-2.96C158.311,231.804,158.214,231.589,158.127,231.376z"/>
				<path style="fill:#262626;" d="M160.085,334.15c-1.055,0.507-2.064,1.101-3.058,1.717c-0.496,0.307-2.041,1.799-2.294,0.639
					c-0.071-0.324,0.041-0.658,0.15-0.971c-1.394,1.309-2.395,3.249-2.529,5.167c-0.11,1.58,0.434,3.938,1.825,4.875
					c1.54,1.038,3.802,0.823,5.332-0.09c1.309-0.781,2-2.254,2.795-3.555c1.624-2.655,3.968-4.865,6.714-6.331
					c0.756-0.403,1.546-0.755,2.228-1.273c1.453-1.104,2.295-2.966,2.165-4.787c-0.061-0.855-0.419-1.801-1.221-2.103
					c0.078,1.315-1.232,2.102-2.246,2.686C166.867,331.899,163.29,332.611,160.085,334.15z"/>
				<path style="fill:#FFAF40;" d="M158.642,342.535c0.392-0.111,0.774-0.257,1.141-0.436c2.879-1.408,4.444-4.605,7.075-6.434
					c1.124-0.782,2.415-1.293,3.56-2.043c1.774-1.163,2.881-3.155,2.667-5.315c-0.09-0.913-0.453-1.146-1.336-1.356
					c-1.161-0.277-2.378-0.182-3.562-0.028c-3.208,0.418-6.805,1.108-9.433,3.127c-0.56,0.43-1.014,0.981-1.462,1.529
					c-1.592,1.949-3.179,3.946-4.193,6.249c-0.662,1.502-0.706,3.085,0.73,4.139c0.735,0.54,1.657,0.779,2.568,0.825
					C157.154,342.83,157.915,342.742,158.642,342.535z"/>
				<g>
					<path style="fill:#4367C7;" d="M176.847,256.645c-0.307-4.166-0.792-8.333-1.792-12.395c-0.402-1.635-0.907-3.291-1.924-4.633
						c-2.078-2.741-5.63-3.537-8.435-5.269c-2.135-1.318-5.191-6.745-3.605-9.325c-2.86,4.653-5.642,9.575-6.647,15.009
						c-0.927,5.013-0.007,10.886,1.286,15.777c0.98,3.707,0.606,7.468,0.722,11.284c0.219,7.208,2.546,14.44,0.986,21.559
						c-0.526,2.402-1.473,4.584-2.277,6.897c-0.04,0.116-0.079,0.231-0.118,0.347c-1.993,5.99-1.8,12.304-1.41,18.526
						c0.397,6.335,1.206,12.711,1.765,18.983c0.327,3.667,7.156,0.14,8.586-1.301c0.355-0.358,0.685-0.75,0.897-1.208
						c0.266-0.577,0.33-1.223,0.392-1.855c0.919-9.37,5.961-37.261,7.078-41.884c1.032-4.274,1.919-8.47,2.781-12.744
						c0.448-2.224,0.821-4.464,1.103-6.716c0.227-1.815,0.431-3.602,0.766-5.384C177.34,260.506,176.982,258.476,176.847,256.645z"
						/>
				</g>
				<path style="fill:#636363;" d="M178.578,356.224c0.037,0.15,0.076,0.299,0.119,0.448c0.254,0.893,0.468,1.62,1.213,2.238
					c0.318,0.264,0.661,0.509,1.051,0.647c1.311,0.465,2.934,0.332,4.246-0.046c1.284-0.37,2.476-0.997,3.695-1.544
					c0.772-0.346,1.564-0.664,2.389-0.859c0.634-0.15,1.357-0.36,2.004-0.407c1.827-0.133,3.644,0.182,5.464-0.17
					c2.297-0.444,4.42-1.553,5.89-3.404c0.786-0.99,1.428-1.94,1.764-3.185c0.38-1.406,0.352-2.846-0.103-4.22
					c-0.221-0.667-0.676-1.321-1.356-1.498c-0.108-0.028-0.232-0.041-0.325,0.022c-0.079,0.054-0.117,0.15-0.143,0.242
					c-0.138,0.481-0.117,0.859-0.379,1.309c-0.441,0.759-1.031,1.418-1.691,1.993c-0.482,0.421-1.001,0.799-1.541,1.143
					c-0.381,0.242-1.219,0.929-1.676,0.929c-4.986,2.414-10.852,2.954-16.195,1.493c-0.982-0.269-1.961-0.604-2.978-0.643
					c-0.313-0.012-0.577-0.056-0.817-0.283c-0.129-0.123-0.438-0.556-0.317-0.755c-0.39,0.639-0.539,1.394-0.617,2.138
					C178.122,353.286,178.225,354.785,178.578,356.224z"/>
				<path style="fill:#FFF454;" d="M179.018,355.014c0.267,0.254,0.568,0.473,0.85,0.647c0.75,0.463,1.606,0.729,2.471,0.896
					c1.326,0.256,2.695,0.29,4.032,0.097c0.919-0.132,1.707-0.589,2.609-0.811c0.951-0.234,1.935-0.323,2.914-0.316
					c1.694,0.012,3.355,0.558,5.046,0.529c1.542-0.026,2.841-0.343,4.148-1.204c1.399-0.922,2.674-2.056,3.639-3.426
					c1.309-1.859,2.316-4.442,1.073-6.58c-0.443-0.763-0.909-1.351-1.809-1.402c-1.249-0.072-2.592,0.299-3.834,0.442
					c-2.134,0.247-4.277,0.418-6.423,0.511c-1.783,0.078-3.585,0.105-5.315,0.543c-1.335,0.338-2.594,0.914-3.812,1.548
					c-0.937,0.488-1.764,1.277-2.727,0.487c-0.37-0.304-0.679-0.686-0.903-1.109c-0.14-0.265-0.219-1.09-0.39-1.252
					c-0.125-0.117-0.314,0.043-0.404,0.189c-1.364,2.213-2.025,4.833-1.961,7.426c0.014,0.566-0.098,1.344,0.122,1.865
					C178.486,354.431,178.732,354.742,179.018,355.014z"/>
				<g>
					<path style="fill:#378FE9;" d="M195.129,253.463c-0.642-7.557-1.843-15.059-3.602-22.401c-0.856,1.911-1.029,4.863-2.811,6.013
						c-2.396,1.546-5.333,2.763-8.194,2.763c-2.838,0.077-5.54-0.745-8.207-1.616c-1.117-0.365-2.084-0.625-3.003-1.339
						c-0.288-0.223-2.528-2.172-2.221-2.559c-2.017,2.541-2.56,5.927-2.849,9.158c-0.313,3.502-0.408,7.134,0.565,10.546
						c0.039,0.138,0.081,0.276,0.123,0.414c1.085,3.476,3.124,6.643,5.303,9.526c1.738,2.299,2.464,3.938,2.653,6.747
						c0.421,6.253,2.604,24.861,3.156,27.903c0.496,2.73-0.097,4.885-0.607,7.59c-0.696,3.692-0.278,7.269,0.058,10.97
						c0.342,3.763,0.659,7.607,1.081,11.313c0.59,5.181,1.19,10.367,1.727,15.553c0.253,2.443,0.032,4.05,2.852,4.601
						c3.082,0.602,6.448-0.515,8.954-2.296c0.382-0.271,0.77-0.581,0.939-1.018c0.154-0.397,0.104-0.841,0.058-1.264
						c-1.172-10.888,2.233-21.765,2.182-32.715c-0.021-4.573-0.645-9.142-0.383-13.707c0.136-2.374,0.511-4.727,0.886-7.076
						C195.735,278.368,196.182,265.843,195.129,253.463z"/>
				</g>
				<path style="fill:#FF5C77;" d="M197.353,181.915c-0.786-0.947-1.997-1.614-3.129-2.186c-2.855-1.443-5.71-2.887-8.565-4.33
					c-3.092-1.563-6.191-3.13-9.424-4.376c-4.789-1.846-9.853-2.975-14.972-3.339c-2.937-0.209-6.433-0.096-8.697,2.068
					c-1.994,1.906-2.454,5.259-2.709,7.857c-0.868,8.835,1.207,17.137,3.06,25.689c1.148,5.299,2.166,10.632,2.809,16.018
					c0.471,3.943,0.868,7.826,1.117,11.779c0.071,1.126-0.156,2.607,0.104,3.694c0.518,2.161,3.833,4.411,5.583,5.57
					c4.65,3.078,11.194,4.311,16.707,4.432c4.304,0.095,8.977-0.664,12.639-3.049c0.495-0.322,0.991-0.697,1.239-1.233
					c0.249-0.537,0.215-1.156,0.175-1.747c-1.041-15.488-2.445-31.399,2.107-46.239c0.482-1.571,1.091-3.15,1.663-4.685
					c0.551-1.479,1.473-2.865,1.033-4.523C197.953,182.787,197.693,182.325,197.353,181.915z"/>
				<path style="fill:#FFE5CC;" d="M186.767,148.989c-0.224,0.717-0.51,1.423-0.512,2.152c-0.002,0.665,0.229,1.306,0.351,1.96
					c0.201,1.076,0.104,2.182-0.007,3.271c-0.146,1.44-0.315,2.878-0.506,4.313c-0.092,0.688-0.195,1.394-0.534,1.999
					c-0.75,1.337-2.414,1.832-3.537,2.876c-1.176,1.094-1.889,3.014-1.824,4.62c0.041,1.007,0.634,2.133,1.335,2.844
					c0.505,0.513,1.401,1.243,0.883,2.033c-0.245,0.374-0.682,0.577-1.114,0.693c-0.528,0.142-1.077,0.182-1.624,0.205
					c-3.817,0.161-7.665-0.474-11.228-1.852c-1.921-0.743-3.83-1.76-5.028-3.436c-0.204-0.286-0.389-0.599-0.434-0.947
					c-0.126-0.98,0.869-1.053,1.491-1.448c0.45-0.286,0.596-0.658,0.774-1.2c0.401-1.221,0.393-2.544,0.405-3.815
					c0.015-1.707,0.036-3.241-0.684-4.83c-0.662-1.461-1.643-2.752-2.301-4.217c-0.078-0.174-0.151-0.35-0.219-0.528
					c-0.974-2.573-1.975-4.881-1.94-7.706c0.052-4.286,2.319-8.486,5.873-10.883c3.61-2.434,8.302-2.953,12.542-1.963
					c0.875,0.204,1.745,0.473,2.521,0.926c0.913,0.534,1.664,1.305,2.34,2.12c1.969,2.374,3.07,5.281,3.314,8.354
					c0.093,1.175,0.058,2.36-0.11,3.526C186.948,148.37,186.863,148.681,186.767,148.989z"/>
				<path style="fill:#333333;" d="M187.514,138.585c0.093-1.836,0.016-3.841-1.03-5.424c-1.164-1.761-2.675-2.681-4.647-3.437
					c-3.018-1.157-6.049-1.302-9.247-0.873c-4.626,0.621-8.97,2.992-11.713,6.812c-1.179,1.642-1.987,3.607-2.17,5.637
					c-0.411,4.562,1.036,9.177,2.721,13.364c0.887,2.204,1.774,4.564,3.434,6.36c1.631,1.765,4.81,2.377,7.128,1.946
					c2.152-0.4,5.346-1.75,6.156-3.936c0.532-1.435,0.165-3.024,0.139-4.554c-0.023-1.352,0.094-3.732,1.172-4.71
					c1.123-1.019,2.748-0.505,3.764,0.399c1.051,0.936,1.572,2.374,1.588,3.781c1.221-4.673,2.139-9.614,2.631-14.421
					C187.473,139.217,187.497,138.902,187.514,138.585z"/>
				<path style="fill:#636363;" d="M158.588,142.728c0.166,0.804,0.594,1.408,1.565,1.348c0.8-0.049,1.548-0.398,2.257-0.772
					c1.063-0.561,2.09-1.192,3.07-1.887c0.187,0.666,0.981,0.92,1.66,1.053c6.242,1.222,13.009,1.028,18.584-2.035
					c0.844-0.464,1.734-1.106,1.942-2.095c0.634-3.014-0.482-6.096-2.862-8.05c-1.556-1.277-3.482-2.033-5.442-2.493
					c-3.003-0.706-6.182-0.755-9.16,0.051c-3.805,1.03-7.291,3.02-9.511,6.379c-1.114,1.686-1.833,3.639-2.055,5.649
					C158.554,140.623,158.398,141.807,158.588,142.728z"/>
				<path style="fill:#FFE5CC;" d="M230.998,183.051c0.368-1.274,0.946-2.475,1.418-3.713c1.241-3.253,1.747-6.742,2.904-10.025
					c0.348-0.987,0.78-1.991,1.573-2.674c0.272-0.234,0.636-0.433,0.977-0.323c0.286,0.093,0.469,0.386,0.519,0.682
					c0.05,0.296-0.008,0.598-0.065,0.893c-0.531,2.702-1.227,5.403-1.432,8.14c1.006-0.33,2.053-0.533,3.11-0.604
					c0.274-0.018,0.553-0.028,0.818,0.044c0.764,0.206,1.22,1.163,0.9,1.886c0.41,0.097,0.692,0.491,0.799,0.898
					c0.107,0.407,0.075,0.836,0.077,1.257c0.001,0.13,0.007,0.267,0.079,0.375c0.055,0.083,0.143,0.138,0.223,0.197
					c0.42,0.311,0.691,0.814,0.72,1.336c0.03,0.55-0.195,1.082-0.453,1.569c-1.62,3.056-4.599,5.115-6.896,7.701
					c-0.059,0.066-0.135,0.139-0.222,0.121c-0.073-0.015-0.116-0.088-0.153-0.153c-0.334-0.584-0.9-1.03-1.546-1.217
					c-0.514-0.149-1.062-0.139-1.577-0.284C230.268,188.451,230.432,185.011,230.998,183.051z"/>
				<path style="fill:#FF8A9D;" d="M237.403,188.597c-0.025-0.156-0.079-0.325-0.169-0.51c-0.275-0.572-0.787-0.997-1.332-1.322
					c-1.09-0.65-2.372-0.973-3.64-0.916c-0.418,0.019-0.846,0.082-1.21,0.289c-0.285,0.162-0.516,0.404-0.742,0.642
					c-0.033,0.035-0.066,0.07-0.1,0.105c-1.303,1.373-11.055,10.765-12.885,12.111c-0.113,0.083-0.204,0.145-0.302,0.213
					c-0.594-0.577-1.21-1.134-1.847-1.659c-3.947-3.253-8.432-5.91-11.833-9.73c-1.19-1.337-2.233-2.801-3.441-4.122
					c-2.092-2.287-4.778-4.134-7.778-4.984c-2.609-0.74-5.792-0.478-7.609,1.789c-0.017,0.021-0.033,0.042-0.05,0.063
					c-1.92,2.455-2.379,6.414-2.036,9.343c0.375,3.202,2.236,6.325,5.155,7.694c0.991,0.465,2.069,0.72,3.063,1.177
					c1.528,0.702,2.8,1.846,4.123,2.886c5.427,4.263,11.935,6.876,18.344,9.433c0.996,0.397,2.028,0.773,3.1,0.889
					c0.716,0.078,1.55,0.227,2.258,0.03c0.635-0.177,1.225-0.864,1.73-1.288c1.333-1.12,2.532-2.387,3.7-3.675
					c2.735-3.018,5.317-6.174,7.735-9.452c1.209-1.639,2.376-3.308,3.501-5.006c0.556-0.839,1.041-1.799,1.683-2.573
					C237.215,189.548,237.491,189.149,237.403,188.597z"/>
			</g>
		</g>
	</g>
</g>
</svg>
